<svg width="20" height="20" viewBox="0 0 20 20" fill="none" xmlns="http://www.w3.org/2000/svg">
<path d="M14.3867 7.91406C14.6255 7.95771 14.8433 8.01895 15.0498 8.10645C16.0072 8.51203 16.7715 9.29138 17.1709 10.2773C17.3286 10.6667 17.4004 11.0932 17.4355 11.6201C17.47 12.1367 17.4707 12.7782 17.4707 13.6045V13.6689C17.4707 14.495 17.47 15.1359 17.4355 15.6523C17.4004 16.1793 17.3285 16.6058 17.1709 16.9951C16.7715 17.9812 16.0073 18.7614 15.0498 19.167C14.6731 19.3265 14.2601 19.3998 13.7471 19.4355C13.2435 19.4707 12.6179 19.4707 11.8096 19.4707H8.19043C7.38216 19.4707 6.75655 19.4707 6.25293 19.4355C5.73986 19.3998 5.32686 19.3265 4.9502 19.167C3.99273 18.7614 3.22843 17.9811 2.8291 16.9951C2.67146 16.6058 2.59961 16.1793 2.56445 15.6523C2.53001 15.1358 2.52929 14.495 2.5293 13.6689V13.6045C2.52929 12.7782 2.52999 12.1367 2.56445 11.6201C2.59961 11.0931 2.67143 10.6667 2.8291 10.2773C3.22844 9.29139 3.99281 8.51203 4.9502 8.10645C5.15674 8.01895 5.3745 7.9577 5.61328 7.91406H14.3867ZM10 0.529297C12.151 0.529297 13.915 2.31663 13.915 4.5459V6.85547H6.08496V4.5459C6.08496 2.31662 7.84894 0.529297 10 0.529297Z" stroke="#1A1A1A" stroke-width="1.05882"/>
<path d="M10 15.8182V14" stroke="#1A1A1A" stroke-width="1.05882" stroke-linecap="round"/>
</svg>
