<svg width="22" height="22" viewBox="0 0 22 22" fill="none" xmlns="http://www.w3.org/2000/svg">
<path d="M20.75 20.75L14.0833 14.0833M0.75 8.52778C0.75 9.54917 0.951178 10.5606 1.34205 11.5042C1.73292 12.4478 2.30582 13.3053 3.02806 14.0275C3.75029 14.7497 4.60771 15.3226 5.55135 15.7135C6.49499 16.1044 7.50639 16.3056 8.52778 16.3056C9.54917 16.3056 10.5606 16.1044 11.5042 15.7135C12.4478 15.3226 13.3053 14.7497 14.0275 14.0275C14.7497 13.3053 15.3226 12.4478 15.7135 11.5042C16.1044 10.5606 16.3056 9.54917 16.3056 8.52778C16.3056 7.50639 16.1044 6.49499 15.7135 5.55135C15.3226 4.60771 14.7497 3.75029 14.0275 3.02806C13.3053 2.30582 12.4478 1.73292 11.5042 1.34205C10.5606 0.951178 9.54917 0.75 8.52778 0.75C7.50639 0.75 6.49499 0.951178 5.55135 1.34205C4.60771 1.73292 3.75029 2.30582 3.02806 3.02806C2.30582 3.75029 1.73292 4.60771 1.34205 5.55135C0.951178 6.49499 0.75 7.50639 0.75 8.52778Z" stroke="#4F46E5" stroke-width="1.5" stroke-linecap="round" stroke-linejoin="round"/>
</svg>
