<svg width="17" height="20" viewBox="0 0 17 20" fill="none" xmlns="http://www.w3.org/2000/svg">
<path d="M4.5459 11.6592H11.8174L12.0059 11.6641C12.9436 11.7117 13.8329 12.1054 14.5 12.7725C15.2116 13.4841 15.612 14.4487 15.6133 15.4551V19.0908C15.6133 19.1329 15.597 19.1733 15.5674 19.2031C15.5376 19.233 15.4963 19.25 15.4541 19.25H0.90918C0.866983 19.25 0.826708 19.233 0.796875 19.2031C0.76704 19.1733 0.75 19.133 0.75 19.0908V15.4551C0.751302 14.4487 1.1517 13.4841 1.86328 12.7725C2.53054 12.1052 3.42038 11.7116 4.3584 11.6641L4.5459 11.6592ZM6.72949 1.03906C7.4229 0.751856 8.18575 0.676884 8.92188 0.823242C9.65796 0.969658 10.3345 1.33072 10.8652 1.86133C11.396 2.39206 11.7578 3.06856 11.9043 3.80469C12.0507 4.54093 11.9757 5.30452 11.6885 5.99805C11.4012 6.69154 10.9142 7.28414 10.29 7.70117C9.66593 8.11812 8.93221 8.33984 8.18164 8.33984C7.17561 8.33835 6.21143 7.9389 5.5 7.22754C4.78862 6.51616 4.38828 5.5519 4.38672 4.5459C4.38672 3.79523 4.60932 3.06068 5.02637 2.43652C5.4434 1.81254 6.0361 1.32628 6.72949 1.03906Z" stroke="#4F46E5" stroke-width="1.5"/>
</svg>
