<svg width="20" height="22" viewBox="0 0 20 22" fill="none" xmlns="http://www.w3.org/2000/svg">
<path d="M3.11996 20.75C1.81109 20.75 0.75 19.6611 0.75 18.3167V8.53685C0.75 7.79798 1.07777 7.09799 1.63888 6.63688L8.15766 1.28363C8.57417 0.938729 9.09798 0.75 9.63875 0.75C10.1795 0.75 10.7033 0.938729 11.1198 1.28363L17.6375 6.63688C18.1997 7.09799 18.5275 7.79798 18.5275 8.53685V18.3167C18.5275 19.6611 17.4664 20.75 16.1575 20.75H3.11996Z" stroke="#4F46E5" stroke-width="1.5" stroke-linecap="round" stroke-linejoin="round"/>
<path d="M6.86084 20.7502V14.6392C6.86084 14.0498 7.09496 13.4846 7.5117 13.0679C7.92845 12.6511 8.49367 12.417 9.08303 12.417H10.1941C10.7835 12.417 11.3487 12.6511 11.7654 13.0679C12.1822 13.4846 12.4163 14.0498 12.4163 14.6392V20.7502" stroke="#4F46E5" stroke-width="1.5" stroke-linecap="round" stroke-linejoin="round"/>
</svg>
