<svg width="18" height="15" viewBox="0 0 18 15" fill="none" xmlns="http://www.w3.org/2000/svg">
<path d="M14.1657 9.62216C15.8392 9.62216 17.196 10.9789 17.196 12.6525V14.1676H15.6808M11.8929 6.4964C13.1999 6.15996 14.1657 4.97355 14.1657 3.56155C14.1657 2.14955 13.1999 0.963106 11.8929 0.626712M9.62021 3.56155C9.62021 5.23514 8.26346 6.59186 6.5899 6.59186C4.91631 6.59186 3.5596 5.23514 3.5596 3.56155C3.5596 1.88796 4.91631 0.53125 6.5899 0.53125C8.26346 0.53125 9.62021 1.88796 9.62021 3.56155ZM3.5596 9.62216H9.62021C11.2938 9.62216 12.6505 10.9789 12.6505 12.6525V14.1676H0.529297V12.6525C0.529297 10.9789 1.88601 9.62216 3.5596 9.62216Z" stroke="#1A1A1A" stroke-width="1.05882" stroke-linecap="round" stroke-linejoin="round"/>
</svg>
