<svg width="18" height="13" viewBox="0 0 18 13" fill="none" xmlns="http://www.w3.org/2000/svg">
<path d="M12.5663 4.23495L14.9523 2.8034C15.6866 2.36276 16.0538 2.14244 16.356 2.17061C16.6194 2.19517 16.8598 2.33125 17.0163 2.54452C17.196 2.7891 17.196 3.21731 17.196 4.07375V8.09986C17.196 8.95625 17.196 9.38449 17.0163 9.62912C16.8598 9.84236 16.6194 9.97847 16.356 10.003C16.0538 10.0312 15.6866 9.81088 14.9523 9.37023L12.5663 7.93866M3.49226 11.6424H9.60337C10.6405 11.6424 11.1591 11.6424 11.5552 11.4405C11.9036 11.263 12.187 10.9797 12.3645 10.6313C12.5663 10.2351 12.5663 9.71653 12.5663 8.6794V3.49421C12.5663 2.45708 12.5663 1.93851 12.3645 1.54238C12.187 1.19393 11.9036 0.91063 11.5552 0.733093C11.1591 0.53125 10.6405 0.53125 9.60337 0.53125H3.49226C2.45513 0.53125 1.93656 0.53125 1.54043 0.733093C1.19197 0.91063 0.908676 1.19393 0.731139 1.54238C0.529297 1.93851 0.529297 2.45707 0.529297 3.49421V8.6794C0.529297 9.71653 0.529297 10.2351 0.731139 10.6313C0.908676 10.9797 1.19197 11.263 1.54043 11.4405C1.93656 11.6424 2.45512 11.6424 3.49226 11.6424Z" stroke="#1A1A1A" stroke-width="1.05882" stroke-linecap="round" stroke-linejoin="round"/>
</svg>
