<svg width="18" height="15" viewBox="0 0 18 15" fill="none" xmlns="http://www.w3.org/2000/svg">
<path d="M8.86263 3.30875C8.86263 1.78125 7.61263 0.53125 6.08513 0.53125H0.529297V10.5312H6.1193C8.86263 10.5312 8.86263 13.3096 8.86263 13.3096M8.86263 3.30875C8.86263 1.78042 10.1126 0.53125 11.6401 0.53125H17.196V10.5312H11.6401C8.86263 10.5312 8.86263 13.3096 8.86263 13.3096M8.86263 3.30875V13.3096M10.4251 14.2462C10.599 13.8861 10.8699 13.5817 11.2073 13.367C11.5447 13.1524 11.9353 13.0361 12.3351 13.0312H16.3626M7.30013 14.2462C7.12943 13.8837 6.85931 13.5771 6.5212 13.362C6.18308 13.1469 5.79086 13.0322 5.39013 13.0312H1.36263" stroke="#1A1A1A" stroke-width="1.05882" stroke-miterlimit="10" stroke-linecap="round" stroke-linejoin="round"/>
</svg>
