<svg width="23" height="25" viewBox="0 0 23 25" fill="none" xmlns="http://www.w3.org/2000/svg">
<path d="M18.7468 23.997C17.293 25.3162 15.7057 25.1079 14.1777 24.483C12.5607 23.8442 11.0772 23.8164 9.37123 24.483C7.23503 25.344 6.10759 25.0941 4.8318 23.997C-2.40757 17.0117 -1.33946 6.3742 6.879 5.98536C8.88169 6.08257 10.2762 7.013 11.4481 7.09633C13.1986 6.76303 14.8749 5.80482 16.7441 5.92981C18.9842 6.09645 20.6753 6.92968 21.7879 8.42949C17.1595 11.0264 18.2573 16.734 22.5 18.331C21.6544 20.4141 20.5566 22.4833 18.732 24.0109L18.7468 23.997ZM11.2998 5.90203C11.0772 2.8052 13.7623 0.249968 16.848 0C17.2782 3.58288 13.3766 6.24921 11.2998 5.90203Z" fill="#1A1A1A"/>
</svg>
