<svg width="15" height="12" viewBox="0 0 15 12" fill="none" xmlns="http://www.w3.org/2000/svg">
<path d="M7.16667 2.722C7.16667 1.5 6.16667 0.5 4.94467 0.5H0.5V8.5H4.972C7.16667 8.5 7.16667 10.7227 7.16667 10.7227M7.16667 2.722C7.16667 1.49933 8.16667 0.5 9.38867 0.5H13.8333V8.5H9.38867C7.16667 8.5 7.16667 10.7227 7.16667 10.7227M7.16667 2.722V10.7227M8.41667 11.472C8.55577 11.1839 8.77246 10.9403 9.04238 10.7686C9.31231 10.5969 9.62478 10.5039 9.94467 10.5H13.1667M5.91667 11.472C5.7801 11.182 5.56401 10.9366 5.29352 10.7646C5.02303 10.5925 4.70925 10.5008 4.38867 10.5H1.16667" stroke="#4D4D4D" stroke-miterlimit="10" stroke-linecap="round" stroke-linejoin="round"/>
</svg>
