<svg width="15" height="14" viewBox="0 0 15 14" fill="none" xmlns="http://www.w3.org/2000/svg">
<path d="M0.5 6.83333C0.5 4.31917 0.5 3.0621 1.28105 2.28105C2.0621 1.5 3.31917 1.5 5.83333 1.5H8.5C11.0141 1.5 12.2713 1.5 13.0523 2.28105C13.8333 3.0621 13.8333 4.31917 13.8333 6.83333V8.16667C13.8333 10.6808 13.8333 11.9379 13.0523 12.7189C12.2713 13.5 11.0141 13.5 8.5 13.5H5.83333C3.31917 13.5 2.0621 13.5 1.28105 12.7189C0.5 11.9379 0.5 10.6808 0.5 8.16667V6.83333Z" stroke="#4C4C4C"/>
<path d="M3.83203 1.5V0.5" stroke="#4C4C4C" stroke-linecap="round"/>
<path d="M10.5 1.5V0.5" stroke="#4C4C4C" stroke-linecap="round"/>
<path d="M0.832031 4.82812H13.4987" stroke="#4C4C4C" stroke-linecap="round"/>
<path d="M11.1654 10.1667C11.1654 10.5349 10.8669 10.8333 10.4987 10.8333C10.1305 10.8333 9.83203 10.5349 9.83203 10.1667C9.83203 9.79847 10.1305 9.5 10.4987 9.5C10.8669 9.5 11.1654 9.79847 11.1654 10.1667Z" fill="#4C4C4C"/>
<path d="M11.1654 7.49479C11.1654 7.86299 10.8669 8.16146 10.4987 8.16146C10.1305 8.16146 9.83203 7.86299 9.83203 7.49479C9.83203 7.12659 10.1305 6.82812 10.4987 6.82812C10.8669 6.82812 11.1654 7.12659 11.1654 7.49479Z" fill="#4C4C4C"/>
<path d="M7.83333 10.1667C7.83333 10.5349 7.53487 10.8333 7.16667 10.8333C6.79847 10.8333 6.5 10.5349 6.5 10.1667C6.5 9.79847 6.79847 9.5 7.16667 9.5C7.53487 9.5 7.83333 9.79847 7.83333 10.1667Z" fill="#4C4C4C"/>
<path d="M7.83333 7.49479C7.83333 7.86299 7.53487 8.16146 7.16667 8.16146C6.79847 8.16146 6.5 7.86299 6.5 7.49479C6.5 7.12659 6.79847 6.82812 7.16667 6.82812C7.53487 6.82812 7.83333 7.12659 7.83333 7.49479Z" fill="#4C4C4C"/>
<path d="M4.49935 10.1667C4.49935 10.5349 4.20087 10.8333 3.83268 10.8333C3.4645 10.8333 3.16602 10.5349 3.16602 10.1667C3.16602 9.79847 3.4645 9.5 3.83268 9.5C4.20087 9.5 4.49935 9.79847 4.49935 10.1667Z" fill="#4C4C4C"/>
<path d="M4.49935 7.49479C4.49935 7.86299 4.20087 8.16146 3.83268 8.16146C3.4645 8.16146 3.16602 7.86299 3.16602 7.49479C3.16602 7.12659 3.4645 6.82812 3.83268 6.82812C4.20087 6.82812 4.49935 7.12659 4.49935 7.49479Z" fill="#4C4C4C"/>
</svg>
