<svg width="13" height="17" viewBox="0 0 13 17" fill="none" xmlns="http://www.w3.org/2000/svg">
<mask id="path-1-inside-1_495_939" fill="white">
<path d="M6.41277 2.65674H2.21332C1.95569 2.65674 1.75244 2.8657 1.75244 3.11761C1.75244 3.3724 1.95569 3.57849 2.21332 3.57849H6.41273C6.67036 3.57849 6.87361 3.36953 6.87361 3.11761C6.87365 2.85999 6.66469 2.65674 6.41277 2.65674Z"/>
</mask>
<path d="M6.87361 3.11761L4.74813 3.11725V3.11761H6.87361ZM6.41278 2.65674V0.531261H2.21332V2.65674V4.78222H6.41278V2.65674ZM2.21332 2.65674V0.531261C0.764695 0.531261 -0.373036 1.70903 -0.373036 3.11761H1.75244H3.87792C3.87792 4.02237 3.14669 4.78222 2.21332 4.78222V2.65674ZM1.75244 3.11761H-0.373036C-0.373036 4.53773 0.773297 5.70397 2.21332 5.70397V3.57849V1.45301C3.13808 1.45301 3.87792 2.20708 3.87792 3.11761H1.75244ZM2.21332 3.57849V5.70397H6.41273V3.57849V1.45301H2.21332V3.57849ZM6.41273 3.57849V5.70397C7.86135 5.70397 8.99908 4.5262 8.99908 3.11761H6.87361H4.74813C4.74813 2.21285 5.47936 1.45301 6.41273 1.45301V3.57849ZM6.87361 3.11761L8.99908 3.11798C8.99933 1.669 7.82129 0.531261 6.41278 0.531261V2.65674V4.78222C5.50809 4.78222 4.74797 4.05097 4.74813 3.11725L6.87361 3.11761Z" fill="#4F46E5" mask="url(#path-1-inside-1_495_939)"/>
<path d="M8.0931 5.4248H2.21332C1.95569 5.4248 1.75244 5.63377 1.75244 5.88568C1.75244 6.14043 1.95569 6.34655 2.21332 6.34655H8.0931C8.35072 6.34655 8.55397 6.13759 8.55397 5.88568C8.55397 5.62805 8.34501 5.4248 8.0931 5.4248Z" fill="#4F46E5"/>
<path d="M5.01009 8.18994H2.21332C1.95569 8.18994 1.75244 8.3989 1.75244 8.65082C1.75244 8.90844 1.9614 9.11169 2.21332 9.11169H5.01009C5.26772 9.11169 5.47097 8.90273 5.47097 8.65082C5.47097 8.39602 5.26488 8.18994 5.01009 8.18994Z" fill="#4F46E5"/>
<path d="M11.7681 8.66509V1.21945C11.7681 0.549613 11.2214 0 10.5487 0H1.21945C0.549614 0 0 0.546735 0 1.21945V11.4217C0 11.7423 0.128813 12.0544 0.354955 12.2805L2.25 14.1727C2.47614 14.3988 2.79102 14.5276 3.10878 14.5276H7.35402V16.2023C7.35402 16.3826 7.45994 16.5515 7.62883 16.6259C7.79201 16.7004 7.99238 16.6717 8.12407 16.5487L9.03151 15.7357L9.93896 16.5487C10.0964 16.6689 10.3082 16.6689 10.4342 16.6259C10.6088 16.5716 10.709 16.3855 10.709 16.2023V13.3597C11.688 12.7814 12.3407 11.728 12.3407 10.52C12.3407 9.83304 12.1288 9.19464 11.7681 8.66509ZM2.33586 12.9532L1.58299 12.2004H2.33586V12.9532ZM7.35974 13.6088H3.26336V13.6059V11.7337C3.26336 11.4761 3.0544 11.2729 2.80249 11.2729H0.93034V1.21945C0.93034 1.05915 1.05915 0.924583 1.22521 0.924583H10.5515C10.7118 0.924583 10.8464 1.0534 10.8464 1.21945V7.75476C10.3254 7.41123 9.70711 7.21374 9.0401 7.21374C7.21662 7.21374 5.73379 8.69657 5.73379 10.5201C5.73379 11.7281 6.38644 12.7844 7.35974 13.3597V13.6088ZM9.7958 15.1632H9.79292L9.34923 14.7624C9.17463 14.6049 8.90837 14.6049 8.73089 14.7624L8.2872 15.1632V13.7319C8.53052 13.7891 8.78244 13.8206 9.04006 13.8206C9.30057 13.8206 9.55248 13.7863 9.7958 13.7319V15.1632ZM9.03435 12.8989C7.72328 12.8989 6.65554 11.8311 6.65554 10.5201C6.65554 9.20899 7.72328 8.14125 9.03435 8.14125C10.3454 8.14125 11.4132 9.20899 11.4132 10.5201C11.4132 11.8311 10.3483 12.8989 9.03435 12.8989Z" fill="#4F46E5"/>
</svg>
