<svg width="18" height="14" viewBox="0 0 18 14" fill="none" xmlns="http://www.w3.org/2000/svg">
<path d="M8.72748 11.8302C9.29645 11.8302 9.7577 12.2914 9.7577 12.8604C9.7577 13.4294 9.29645 13.8906 8.72748 13.8906C8.15851 13.8906 7.69727 13.4294 7.69727 12.8604C7.69727 12.2914 8.15851 11.8302 8.72748 11.8302Z" fill="#1A1A1A"/>
<path d="M17.1667 4.89305C16.2342 3.56132 14.9997 2.46916 13.5642 1.7059C12.1288 0.942635 10.533 0.529952 8.90752 0.501569C7.28195 0.473197 5.67276 0.82994 4.21151 1.54264C2.75026 2.25534 1.47843 3.30376 0.5 4.60217M14.635 7.69606C13.9823 6.76382 13.1181 5.9993 12.1132 5.46503C11.1085 4.93076 9.99142 4.64178 8.85354 4.622C7.71567 4.60211 6.58923 4.85184 5.56636 5.35067C4.54349 5.84961 3.6532 6.58353 2.96831 7.49239M11.2594 10.0597C10.9796 9.66017 10.6093 9.33246 10.1786 9.10355C9.74797 8.87453 9.26923 8.7507 8.78163 8.74225C8.29393 8.7337 7.81117 8.84074 7.37281 9.05451C6.93445 9.26838 6.5529 9.58291 6.25937 9.97243" stroke="#1A1A1A" stroke-linecap="round" stroke-linejoin="round"/>
</svg>
