<svg width="19" height="18" viewBox="0 0 19 18" fill="none" xmlns="http://www.w3.org/2000/svg">
<path d="M9.5293 0.503673C9.5293 0.22753 9.75315 0.0036726 10.0293 0.0036726C10.3054 0.0036726 10.5293 0.22753 10.5293 0.503673H10.0293H9.5293ZM10.3829 12.877C10.1876 13.0723 9.87101 13.0723 9.67574 12.877L6.49376 9.69501C6.2985 9.49975 6.2985 9.18317 6.49376 8.9879C6.68903 8.79264 7.00561 8.79264 7.20087 8.9879L10.0293 11.8163L12.8577 8.9879C13.053 8.79264 13.3696 8.79264 13.5648 8.9879C13.7601 9.18317 13.7601 9.49975 13.5648 9.69501L10.3829 12.877ZM10.0293 0.503673H10.5293V12.5234H10.0293H9.5293V0.503673H10.0293Z" fill="white"/>
<path d="M0.5 11.3594C0.5 12.8068 0.501734 13.8163 0.612527 14.5781C0.720145 15.3181 0.917 15.7098 1.21892 15.989C1.52084 16.2681 1.94475 16.45 2.74522 16.5495C3.56924 16.6519 4.66137 16.6535 6.22727 16.6535H12.7727C14.3386 16.6535 15.4307 16.6519 16.2548 16.5495C17.0553 16.45 17.4791 16.2681 17.7811 15.989C18.0831 15.7098 18.2799 15.3181 18.3875 14.5781C18.4983 13.8163 18.5 12.8068 18.5 11.3594" stroke="white" stroke-linecap="round"/>
</svg>
