<svg width="16" height="15" viewBox="0 0 16 15" fill="none" xmlns="http://www.w3.org/2000/svg">
<path d="M7.94141 0.499155C7.94141 0.223013 8.16526 -0.000844955 8.44141 -0.000844955C8.71755 -0.000844955 8.94141 0.223013 8.94141 0.499155H8.44141H7.94141ZM8.79496 10.8692C8.5997 11.0644 8.28311 11.0644 8.08785 10.8692L4.90587 7.6872C4.71061 7.49194 4.71061 7.17535 4.90587 6.98009C5.10113 6.78483 5.41772 6.78483 5.61298 6.98009L8.44141 9.80852L11.2698 6.98009C11.4651 6.78483 11.7817 6.78483 11.9769 6.98009C12.1722 7.17535 12.1722 7.49194 11.9769 7.6872L8.79496 10.8692ZM8.44141 0.499155H8.94141V10.5156H8.44141H7.94141V0.499155H8.44141Z" fill="#1A1A1A"/>
<path d="M0.5 9.53906C0.5 10.7453 0.501445 11.5865 0.593773 12.2213C0.683454 12.838 0.8475 13.1644 1.0991 13.397C1.3507 13.6297 1.70395 13.7812 2.37102 13.8642C3.0577 13.9495 3.96781 13.9508 5.27273 13.9508H10.7273C12.0322 13.9508 12.9423 13.9495 13.629 13.8642C14.2961 13.7812 14.6493 13.6297 14.9009 13.397C15.1525 13.1644 15.3165 12.838 15.4063 12.2213C15.4985 11.5865 15.5 10.7453 15.5 9.53906" stroke="#1A1A1A" stroke-linecap="round"/>
</svg>
