<svg width="31" height="30" viewBox="0 0 31 30" fill="none" xmlns="http://www.w3.org/2000/svg">
<path d="M13.9822 2.80427C14.345 1.76044 14.5264 1.23855 14.7948 1.0939C15.0269 0.968701 15.3064 0.968701 15.5387 1.0939C15.8069 1.23855 15.9883 1.76044 16.3511 2.80427L18.7499 9.705C18.8532 10.0021 18.9047 10.1506 18.9978 10.2612C19.08 10.359 19.1849 10.4351 19.3032 10.4831C19.4371 10.5374 19.5943 10.5406 19.9087 10.547L27.2129 10.6959C28.3179 10.7184 28.8703 10.7296 29.0908 10.9401C29.2816 11.1222 29.3679 11.3881 29.3206 11.6476C29.266 11.9475 28.8257 12.2812 27.9451 12.9489L22.1233 17.3625C21.8726 17.5527 21.7474 17.6477 21.6709 17.7703C21.6033 17.8787 21.5634 18.0019 21.5543 18.1292C21.5441 18.2734 21.5895 18.4239 21.6806 18.725L23.7963 25.7178C24.1162 26.7755 24.2762 27.3044 24.1443 27.579C24.03 27.8168 23.8038 27.9811 23.5423 28.0164C23.2403 28.0569 22.7868 27.7414 21.8797 27.1102L15.8829 22.9373C15.6248 22.7577 15.4957 22.6679 15.3555 22.6329C15.2315 22.6022 15.1018 22.6022 14.978 22.6329C14.8377 22.6679 14.7086 22.7577 14.4504 22.9373L8.45369 27.1102C7.54662 27.7414 7.09308 28.0569 6.79102 28.0164C6.52961 27.9811 6.30342 27.8168 6.18916 27.579C6.05715 27.3044 6.21716 26.7755 6.53716 25.7178L8.65274 18.725C8.74381 18.4239 8.78934 18.2734 8.77909 18.1292C8.77003 18.0019 8.73 17.8787 8.66245 17.7703C8.58601 17.6477 8.46069 17.5527 8.21006 17.3625L2.38831 12.9489C1.5077 12.2812 1.06739 11.9475 1.01273 11.6476C0.965405 11.3881 1.05181 11.1222 1.24262 10.9401C1.46307 10.7296 2.0155 10.7184 3.12035 10.6959L10.4246 10.547C10.739 10.5406 10.8963 10.5374 11.0302 10.4831C11.1485 10.4351 11.2534 10.359 11.3356 10.2612C11.4286 10.1506 11.4802 10.0021 11.5835 9.705L13.9822 2.80427Z" stroke="#DFB300" stroke-width="2" stroke-linecap="round" stroke-linejoin="round"/>
</svg>
