<svg width="21" height="21" viewBox="0 0 21 21" fill="none" xmlns="http://www.w3.org/2000/svg">
<path d="M20.5 20.5L13.8333 13.8333M0.5 8.27778C0.5 9.29917 0.701178 10.3106 1.09205 11.2542C1.48292 12.1978 2.05582 13.0553 2.77806 13.7775C3.50029 14.4997 4.35771 15.0726 5.30135 15.4635C6.24499 15.8544 7.25639 16.0556 8.27778 16.0556C9.29917 16.0556 10.3106 15.8544 11.2542 15.4635C12.1978 15.0726 13.0553 14.4997 13.7775 13.7775C14.4997 13.0553 15.0726 12.1978 15.4635 11.2542C15.8544 10.3106 16.0556 9.29917 16.0556 8.27778C16.0556 7.25639 15.8544 6.24499 15.4635 5.30135C15.0726 4.35771 14.4997 3.50029 13.7775 2.77806C13.0553 2.05582 12.1978 1.48292 11.2542 1.09205C10.3106 0.701178 9.29917 0.5 8.27778 0.5C7.25639 0.5 6.24499 0.701178 5.30135 1.09205C4.35771 1.48292 3.50029 2.05582 2.77806 2.77806C2.05582 3.50029 1.48292 4.35771 1.09205 5.30135C0.701178 6.24499 0.5 7.25639 0.5 8.27778Z" stroke="#B3B3B3" stroke-linecap="round" stroke-linejoin="round"/>
</svg>
