<svg width="24" height="24" viewBox="0 0 24 24" fill="none" xmlns="http://www.w3.org/2000/svg">
<path d="M19.2857 2V22M5 5.32714V18.6729C5 20.1953 5 20.9564 5.31209 21.3474C5.5835 21.6874 5.99506 21.8853 6.43011 21.8849C6.93036 21.8843 7.52477 21.4087 8.71359 20.4577L14.8236 15.5697C16.3489 14.3494 17.1116 13.7394 17.3876 13.0023C17.6297 12.356 17.6297 11.644 17.3876 10.9977C17.1116 10.2606 16.3489 9.65057 14.8236 8.43031L8.71359 3.5423C7.52477 2.59124 6.93036 2.11571 6.43011 2.11519C5.99506 2.11471 5.5835 2.31251 5.31209 2.65253C5 3.0435 5 3.80471 5 5.32714Z" stroke="#FDFDFD" stroke-linecap="round" stroke-linejoin="round"/>
</svg>
