<svg width="25" height="25" viewBox="0 0 25 25" fill="none" xmlns="http://www.w3.org/2000/svg">
<path d="M8.88477 1.57178C11.4715 0.702898 14.2848 0.727147 16.8555 1.64014V1.64111C17.9512 2.04047 18.9739 2.60313 19.8916 3.3042C19.7263 3.46366 19.5525 3.63095 19.3848 3.80225C18.8053 4.37203 18.2235 4.93972 17.6426 5.50732C16.9127 4.96679 16.091 4.55438 15.2139 4.29053L15.209 4.28955L14.9307 4.2124C13.5321 3.85098 12.0606 3.84863 10.6582 4.20752C9.16507 4.58967 7.80563 5.36712 6.72949 6.45752C5.79416 7.39005 5.08402 8.51871 4.6543 9.76025C4.03853 11.5372 4.03856 13.4647 4.6543 15.2417H4.65527C5.25863 16.9797 6.405 18.4834 7.92773 19.5405V19.5415C8.88196 20.2075 9.96635 20.6708 11.1113 20.9028L11.1211 20.9048L11.1299 20.9058C12.2422 21.1084 13.3826 21.1085 14.4951 20.9077L14.4961 20.9087C15.6257 20.7213 16.7037 20.3036 17.6611 19.6831L17.6621 19.6841L17.6689 19.6792C18.4417 19.1686 19.1025 18.5095 19.6113 17.7407C20.1201 16.9719 20.4664 16.1093 20.6279 15.2046L20.8252 14.1021H13.6914V11.0981H23.9551C24.1861 12.9174 24.0428 14.7664 23.5312 16.5356C23.0053 18.3538 21.9827 19.9992 20.5713 21.2944C19.2176 22.4966 17.5678 23.3367 15.7812 23.73L15.7715 23.7319C13.7704 24.1928 11.6849 24.1714 9.69434 23.6694H9.69531C7.24901 23.0258 5.08066 21.6317 3.50781 19.6948C1.93527 17.7583 1.04044 15.3808 0.950195 12.9126C0.859992 10.4445 1.57939 8.01127 3.00586 5.97021C4.43269 3.92882 6.49233 2.38514 8.88477 1.57178Z" stroke="#1A1A1A" stroke-width="1.875"/>
<path d="M8.58484 0.685279C11.3735 -0.252878 14.4059 -0.227075 17.1776 0.758396C18.6997 1.31678 20.0943 2.16429 21.2813 3.25228C20.878 3.67517 20.4525 4.0704 20.0411 4.48144C19.2587 5.24686 18.4769 6.00965 17.6958 6.7698C16.9171 6.04009 15.9752 5.49874 14.9452 5.18889C13.6271 4.79889 12.2248 4.77218 10.8923 5.11171C9.5597 5.45124 8.34832 6.14388 7.39101 7.11365C6.5554 7.94666 5.92258 8.95386 5.53978 10.0601L1.35938 6.88837C2.85571 3.98061 5.44651 1.75639 8.58484 0.685279Z" fill="#E33629"/>
<path d="M0.250052 10.0307C0.474744 8.93949 0.847779 7.88272 1.35918 6.88867L5.53958 10.0683C4.99271 11.6464 4.99271 13.3573 5.53958 14.9355C4.14679 15.9894 2.75332 17.0486 1.35918 18.1131C0.0789453 15.6159 -0.311504 12.7706 0.250052 10.0307Z" fill="#F8BD00"/>
<path d="M12.7548 10.1587H24.7576C25.1682 12.3659 25.0571 14.636 24.4329 16.7946C23.8587 18.7795 22.7432 20.5736 21.2064 21.9839C19.8573 20.9523 18.5021 19.9287 17.153 18.8972C17.8219 18.4551 18.3927 17.8852 18.8314 17.2217C19.2701 16.5582 19.5676 15.8147 19.706 15.0358H12.7548C12.7528 13.4114 12.7548 11.7851 12.7548 10.1587Z" fill="#587DBD"/>
<path d="M1.35645 18.1132C2.75059 17.0592 4.14405 16 5.53685 14.9355C6.0757 16.4852 7.10053 17.8284 8.46495 18.7732C9.31597 19.3626 10.283 19.7718 11.3043 19.9747C12.3107 20.1581 13.343 20.1581 14.3494 19.9747C15.3528 19.8082 16.3097 19.438 17.1585 18.8878C18.5076 19.9194 19.8627 20.943 21.2119 21.9745C19.7355 23.2901 17.9357 24.2073 15.9889 24.6364C13.84 25.1314 11.6006 25.1077 9.46316 24.5672C7.77265 24.1249 6.1936 23.3452 4.82499 22.2769C3.37639 21.1499 2.19324 19.7296 1.35645 18.1132Z" fill="#319F43"/>
</svg>
