<svg width="31" height="31" viewBox="0 0 31 31" fill="none" xmlns="http://www.w3.org/2000/svg">
<path d="M29.3333 15.1667H26.1852C24.4465 15.1667 23.037 16.5761 23.037 18.3148V21.463C23.037 23.2016 24.4465 24.6111 26.1852 24.6111C27.9239 24.6111 29.3333 23.2016 29.3333 21.463V15.1667ZM29.3333 15.1667C29.3333 7.34263 22.9907 1 15.1667 1C7.34263 1 1 7.34263 1 15.1667M1 15.1667V21.463C1 23.2016 2.40947 24.6111 4.14815 24.6111C5.88682 24.6111 7.2963 23.2016 7.2963 21.463V18.3148C7.2963 16.5761 5.88682 15.1667 4.14815 15.1667H1Z" stroke="#4F46E5" stroke-width="2" stroke-linecap="round" stroke-linejoin="round"/>
<path d="M29.333 18.3125V24.6088C29.333 27.7569 28.2836 29.331 26.1848 29.331C24.0861 29.331 21.4626 29.331 18.3145 29.331" stroke="#4F46E5" stroke-width="2" stroke-linecap="round" stroke-linejoin="round"/>
</svg>
