<svg width="18" height="18" viewBox="0 0 18 18" fill="none" xmlns="http://www.w3.org/2000/svg">
<path d="M8.83333 17.1667C13.4357 17.1667 17.1667 13.4357 17.1667 8.83333C17.1667 4.23096 13.4357 0.5 8.83333 0.5C4.23096 0.5 0.5 4.23096 0.5 8.83333C0.5 13.4357 4.23096 17.1667 8.83333 17.1667Z" stroke="#4F46E5"/>
<path d="M7.271 6.22949C7.271 5.36655 7.97058 4.66699 8.8335 4.66699C9.69641 4.66699 10.396 5.36655 10.396 6.22949C10.396 6.80237 10.0877 7.30324 9.628 7.57524C9.23183 7.80958 8.8335 8.16508 8.8335 8.62533V9.66699" stroke="#4F46E5" stroke-linecap="round"/>
<path d="M8.83301 11.8335C9.01699 11.8335 9.16682 11.9826 9.16699 12.1665C9.16699 12.3506 9.0171 12.5005 8.83301 12.5005C8.64906 12.5003 8.5 12.3505 8.5 12.1665C8.50018 11.9827 8.64917 11.8337 8.83301 11.8335Z" fill="black" stroke="#4F46E5"/>
</svg>
