<svg width="19" height="21" viewBox="0 0 19 21" fill="none" xmlns="http://www.w3.org/2000/svg">
<path d="M2.86996 20.5C1.56109 20.5 0.5 19.4111 0.5 18.0667V8.28685C0.5 7.54798 0.827773 6.84799 1.38888 6.38688L7.90766 1.03363C8.32417 0.688729 8.84798 0.5 9.38875 0.5C9.92952 0.5 10.4533 0.688729 10.8698 1.03363L17.3875 6.38688C17.9497 6.84799 18.2775 7.54798 18.2775 8.28685V18.0667C18.2775 19.4111 17.2164 20.5 15.9075 20.5H2.86996Z" stroke="#B3B3B3" stroke-linecap="round" stroke-linejoin="round"/>
<path d="M6.61084 20.5002V14.3892C6.61084 13.7998 6.84496 13.2346 7.2617 12.8179C7.67845 12.4011 8.24367 12.167 8.83303 12.167H9.94412C10.5335 12.167 11.0987 12.4011 11.5154 12.8179C11.9322 13.2346 12.1663 13.7998 12.1663 14.3892V20.5002" stroke="#B3B3B3" stroke-linecap="round" stroke-linejoin="round"/>
</svg>
