<svg width="21" height="18" viewBox="0 0 21 18" fill="none" xmlns="http://www.w3.org/2000/svg">
<path d="M10.5 3.833C10.5 2 9 0.5 7.167 0.5H0.5V12.5H7.208C10.5 12.5 10.5 15.834 10.5 15.834M10.5 3.833C10.5 1.999 12 0.5 13.833 0.5H20.5V12.5H13.833C10.5 12.5 10.5 15.834 10.5 15.834M10.5 3.833V15.834M12.375 16.958C12.5837 16.5259 12.9087 16.1605 13.3136 15.9029C13.7185 15.6454 14.1872 15.5058 14.667 15.5H19.5M8.625 16.958C8.42016 16.5229 8.09602 16.155 7.69028 15.8969C7.28454 15.6388 6.81387 15.5011 6.333 15.5H1.5" stroke="#B3B3B3" stroke-miterlimit="10" stroke-linecap="round" stroke-linejoin="round"/>
</svg>
