<svg width="24" height="24" viewBox="0 0 24 24" fill="none" xmlns="http://www.w3.org/2000/svg">
<path d="M9.04257 16.3231C12.5498 16.1283 15.3337 13.2228 15.3337 9.66685C15.3337 5.98485 12.3488 3 8.66685 3C4.98485 3 2 5.98485 2 9.66685C2 10.9788 2.37883 12.2021 3.03324 13.2336L2.56208 14.647L2.56133 14.6491C2.38088 15.1904 2.29061 15.4613 2.35488 15.6416C2.41089 15.7986 2.53523 15.9225 2.6923 15.9785C2.87194 16.0425 3.14087 15.9529 3.67859 15.7736L3.68625 15.7714L5.10013 15.3001C6.13156 15.9546 7.35498 16.3335 8.66692 16.3335C8.79299 16.3335 8.91824 16.33 9.04257 16.3231ZM9.04257 16.3231C9.04248 16.3228 9.04266 16.3234 9.04257 16.3231ZM9.04257 16.3231C9.95478 18.9181 12.4271 20.7785 15.3338 20.7785C16.6457 20.7785 17.869 20.3991 18.9004 19.7447L20.3138 20.2159L20.3166 20.2165C20.858 20.3968 21.1292 20.4873 21.3094 20.423C21.4665 20.367 21.5893 20.2431 21.6453 20.0861C21.7097 19.9056 21.6197 19.6345 21.4387 19.0917L20.9675 17.6782L21.1253 17.4166C21.6825 16.4425 22 15.314 22 14.1114C22 10.4294 19.0157 7.44457 15.3337 7.44457L15.0841 7.44917L14.9582 7.45531" stroke="white" stroke-linecap="round" stroke-linejoin="round"/>
</svg>
