<svg width="18" height="18" viewBox="0 0 18 18" fill="none" xmlns="http://www.w3.org/2000/svg">
<path d="M11.332 4.66667C11.3219 2.85414 11.2416 1.87255 10.6012 1.23223C9.86899 0.5 8.69049 0.5 6.33349 0.5H5.50016C3.14316 0.5 1.96457 0.5 1.23241 1.23223C0.500157 1.96447 0.500157 3.14297 0.500157 5.5V12.1667C0.500157 14.5237 0.500157 15.7022 1.23241 16.4344C1.96457 17.1667 3.14316 17.1667 5.50016 17.1667H6.33349C8.69049 17.1667 9.86899 17.1667 10.6012 16.4344C11.2416 15.7941 11.3219 14.8125 11.332 13" stroke="#FF383C" stroke-linecap="round"/>
<path d="M6.33366 8.8335H17.167M17.167 8.8335L14.2503 6.3335M17.167 8.8335L14.2503 11.3335" stroke="#FF383C" stroke-linecap="round" stroke-linejoin="round"/>
</svg>
