<svg width="18" height="15" viewBox="0 0 18 15" fill="none" xmlns="http://www.w3.org/2000/svg">
<path d="M8.83333 3.2775C8.83333 1.75 7.58333 0.5 6.05583 0.5H0.5V10.5H6.09C8.83333 10.5 8.83333 13.2783 8.83333 13.2783M8.83333 3.2775C8.83333 1.74917 10.0833 0.5 11.6108 0.5H17.1667V10.5H11.6108C8.83333 10.5 8.83333 13.2783 8.83333 13.2783M8.83333 3.2775V13.2783M10.3958 14.215C10.5697 13.8549 10.8406 13.5504 11.178 13.3358C11.5154 13.1211 11.906 13.0049 12.3058 13H16.3333M7.27083 14.215C7.10013 13.8524 6.83002 13.5458 6.4919 13.3307C6.15379 13.1156 5.76156 13.0009 5.36083 13H1.33333" stroke="#4F46E5" stroke-miterlimit="10" stroke-linecap="round" stroke-linejoin="round"/>
</svg>
