<svg width="18" height="18" viewBox="0 0 18 18" fill="none" xmlns="http://www.w3.org/2000/svg">
<path d="M0.5 1.78205V11.3974C0.5 12.1026 1.07692 12.6795 1.78205 12.6795H15.8846C16.5897 12.6795 17.1667 12.1026 17.1667 11.3974V1.78205C17.1667 1.07692 16.5897 0.5 15.8846 0.5H1.78205C1.07692 0.5 0.5 1.07692 0.5 1.78205Z" stroke="#4F46E5" stroke-miterlimit="10" stroke-linecap="round" stroke-linejoin="round"/>
<path d="M4.34616 16.5254H13.3205" stroke="#4F46E5" stroke-miterlimit="10" stroke-linecap="round" stroke-linejoin="round"/>
<path d="M6.91026 12.6792C6.91026 14.0254 6.46154 15.6279 5.75641 16.5254" stroke="#4F46E5" stroke-miterlimit="10" stroke-linecap="round" stroke-linejoin="round"/>
<path d="M11.9103 16.5254C11.2051 15.6279 10.7564 14.0254 10.7564 12.6792" stroke="#4F46E5" stroke-miterlimit="10" stroke-linecap="round" stroke-linejoin="round"/>
<path d="M8.83334 2.42285L4.34616 4.02542V5.62798H13.3205V4.02542L8.83334 2.42285Z" stroke="#4F46E5" stroke-miterlimit="10" stroke-linecap="round" stroke-linejoin="round"/>
<path d="M8.83334 5.62793V10.1151" stroke="#4F46E5" stroke-miterlimit="10" stroke-linecap="round" stroke-linejoin="round"/>
<path d="M6.91026 5.62793V10.1151" stroke="#4F46E5" stroke-miterlimit="10" stroke-linecap="round" stroke-linejoin="round"/>
<path d="M4.98718 5.62793V10.1151" stroke="#4F46E5" stroke-miterlimit="10" stroke-linecap="round" stroke-linejoin="round"/>
<path d="M10.7564 5.62793V10.1151" stroke="#4F46E5" stroke-miterlimit="10" stroke-linecap="round" stroke-linejoin="round"/>
<path d="M12.6795 5.62793V10.1151" stroke="#4F46E5" stroke-miterlimit="10" stroke-linecap="round" stroke-linejoin="round"/>
<path d="M4.34616 10.1152H13.3205" stroke="#4F46E5" stroke-miterlimit="10" stroke-linecap="round" stroke-linejoin="round"/>
</svg>
