<svg width="16" height="16" viewBox="0 0 16 16" fill="none" xmlns="http://www.w3.org/2000/svg">
<path d="M7.63867 0.529297H7.6416C8.57601 0.525058 9.5021 0.705914 10.3662 1.06152C11.2304 1.41717 12.016 1.94076 12.6768 2.60156C13.3375 3.26232 13.8602 4.04801 14.2158 4.91211C14.5714 5.77625 14.7523 6.70229 14.748 7.63672V7.63867C14.748 9.04479 14.331 10.4197 13.5498 11.5889C12.7686 12.7579 11.6584 13.669 10.3594 14.207C9.06035 14.7451 7.63098 14.8866 6.25195 14.6123C4.87285 14.338 3.60561 13.6603 2.61133 12.666C1.61729 11.6719 0.940363 10.4052 0.666016 9.02637C0.391695 7.64726 0.532213 6.21706 1.07031 4.91797C1.60842 3.61896 2.52036 2.5087 3.68945 1.72754C4.85847 0.946515 6.23275 0.52934 7.63867 0.529297Z" stroke="#1A1A1A" stroke-width="1.05882"/>
<path d="M7.63965 6.7793C7.68342 6.7793 7.72589 6.79718 7.75684 6.82812C7.78752 6.85901 7.80466 6.90079 7.80469 6.94434V11.1113C7.80463 11.1549 7.78753 11.1967 7.75684 11.2275C7.72589 11.2585 7.68342 11.2764 7.63965 11.2764C7.59594 11.2763 7.55436 11.2584 7.52344 11.2275C7.49254 11.1966 7.47467 11.155 7.47461 11.1113V6.94434C7.47464 6.90061 7.49251 6.85905 7.52344 6.82812C7.55436 6.7972 7.59592 6.77933 7.63965 6.7793Z" fill="#1A1A1A" stroke="#1A1A1A" stroke-width="1.05882"/>
<path d="M7.63976 4.85764C8.02329 4.85764 8.3342 4.54673 8.3342 4.16319C8.3342 3.77966 8.02329 3.46875 7.63976 3.46875C7.25623 3.46875 6.94531 3.77966 6.94531 4.16319C6.94531 4.54673 7.25623 4.85764 7.63976 4.85764Z" fill="#1A1A1A"/>
</svg>
