<svg width="15" height="18" viewBox="0 0 15 18" fill="none" xmlns="http://www.w3.org/2000/svg">
<path d="M7.16503 1.30322C4.42314 1.30322 2.19485 3.53151 2.19485 6.27337V8.66732C2.19485 9.17262 1.97948 9.94299 1.72269 10.3737L0.770078 11.9559C0.181944 12.9334 0.58784 14.0185 1.66471 14.383C5.23493 15.5758 9.08682 15.5758 12.657 14.383C13.6594 14.0516 14.0984 12.8671 13.5517 11.9559L12.5991 10.3737C12.3506 9.94299 12.1352 9.17262 12.1352 8.66732V6.27337C12.1352 3.53979 9.89861 1.30322 7.16503 1.30322Z" stroke="#4F46E5" stroke-miterlimit="10" stroke-linecap="round"/>
<path d="M8.69774 1.54373C8.44095 1.46918 8.17587 1.41119 7.90251 1.37806C7.10729 1.27866 6.3452 1.33664 5.63281 1.54373C5.87304 0.930746 6.46945 0.5 7.16528 0.5C7.8611 0.5 8.45751 0.930746 8.69774 1.54373Z" stroke="#4F46E5" stroke-miterlimit="10" stroke-linecap="round" stroke-linejoin="round"/>
<path d="M9.65 14.6816C9.65 16.0484 8.53172 17.1667 7.16493 17.1667C6.48568 17.1667 5.85612 16.8851 5.40883 16.4378C4.96151 15.9904 4.67987 15.3609 4.67987 14.6816" stroke="#4F46E5" stroke-miterlimit="10"/>
</svg>
