<svg width="15" height="13" viewBox="0 0 15 13" fill="none" xmlns="http://www.w3.org/2000/svg">
<mask id="path-1-inside-1_502_1440" fill="white">
<path fill-rule="evenodd" clip-rule="evenodd" d="M15 0.625L14.375 0H0.625L0 0.625V12.7589L2.75888 10H14.375L15 9.375V0.625ZM13.75 1.25V8.75H2.24112L1.25 9.74108V1.25H13.75Z"/>
</mask>
<path d="M15 0.625H16.4167V0.0381974L16.0017 -0.376735L15 0.625ZM14.375 0L15.3767 -1.00173L14.9618 -1.41667H14.375V0ZM0.625 0V-1.41667H0.0381975L-0.376735 -1.00173L0.625 0ZM0 0.625L-1.00173 -0.376735L-1.41667 0.0381974V0.625H0ZM0 12.7589H-1.41667V16.1791L1.00174 13.7606L0 12.7589ZM2.75888 10V8.58333H2.17208L1.75714 8.99827L2.75888 10ZM14.375 10V11.4167H14.9618L15.3767 11.0017L14.375 10ZM15 9.375L16.0017 10.3767L16.4167 9.9618V9.375H15ZM13.75 1.25H15.1667V-0.166667H13.75V1.25ZM13.75 8.75V10.1667H15.1667V8.75H13.75ZM2.24112 8.75V7.33333H1.65433L1.2394 7.74825L2.24112 8.75ZM1.25 9.74108H-0.166667V13.1611L2.25172 10.7428L1.25 9.74108ZM1.25 1.25V-0.166667H-0.166667V1.25H1.25ZM15 0.625L16.0017 -0.376735L15.3767 -1.00173L14.375 0L13.3733 1.00173L13.9983 1.62673L15 0.625ZM14.375 0V-1.41667H0.625V0V1.41667H14.375V0ZM0.625 0L-0.376735 -1.00173L-1.00173 -0.376735L0 0.625L1.00173 1.62673L1.62673 1.00173L0.625 0ZM0 0.625H-1.41667V12.7589H0H1.41667V0.625H0ZM0 12.7589L1.00174 13.7606L3.76062 11.0017L2.75888 10L1.75714 8.99827L-1.00174 11.7572L0 12.7589ZM2.75888 10V11.4167H14.375V10V8.58333H2.75888V10ZM14.375 10L15.3767 11.0017L16.0017 10.3767L15 9.375L13.9983 8.37326L13.3733 8.99826L14.375 10ZM15 9.375H16.4167V0.625H15H13.5833V9.375H15ZM13.75 1.25H12.3333V8.75H13.75H15.1667V1.25H13.75ZM13.75 8.75V7.33333H2.24112V8.75V10.1667H13.75V8.75ZM2.24112 8.75L1.2394 7.74825L0.248282 8.73933L1.25 9.74108L2.25172 10.7428L3.24283 9.75175L2.24112 8.75ZM1.25 9.74108H2.66667V1.25H1.25H-0.166667V9.74108H1.25ZM1.25 1.25V2.66667H13.75V1.25V-0.166667H1.25V1.25Z" fill="#4F46E5" mask="url(#path-1-inside-1_502_1440)"/>
</svg>
