<svg width="19" height="16" viewBox="0 0 19 16" fill="none" xmlns="http://www.w3.org/2000/svg">
<path d="M9.04165 3.486C9.04165 1.9585 7.79165 0.708496 6.26415 0.708496H0.708313V10.7085H6.29831C9.04165 10.7085 9.04165 13.4868 9.04165 13.4868M9.04165 3.486C9.04165 1.95766 10.2916 0.708496 11.8191 0.708496H17.375V10.7085H11.8191C9.04165 10.7085 9.04165 13.4868 9.04165 13.4868M9.04165 3.486V13.4868M10.6041 14.4235C10.778 14.0634 11.0489 13.7589 11.3863 13.5443C11.7237 13.3296 12.1143 13.2134 12.5141 13.2085H16.5416M7.47915 14.4235C7.30844 14.0609 7.03833 13.7543 6.70021 13.5392C6.3621 13.3241 5.96987 13.2094 5.56915 13.2085H1.54165" stroke="#4F46E5" stroke-width="1.41667" stroke-miterlimit="10" stroke-linecap="round" stroke-linejoin="round"/>
</svg>
