<svg width="17" height="21" viewBox="0 0 17 21" fill="none" xmlns="http://www.w3.org/2000/svg">
<path d="M8.49796 1.46387C5.20769 1.46387 2.53375 4.13781 2.53375 7.42805V10.3008C2.53375 10.9071 2.2753 11.8316 1.96716 12.3485L0.824021 14.2471C0.11826 15.42 0.605334 16.7222 1.89757 17.1596C6.18184 18.591 10.8041 18.591 15.0884 17.1596C16.2912 16.762 16.818 15.3405 16.1619 14.2471L15.0188 12.3485C14.7206 11.8316 14.4621 10.9071 14.4621 10.3008V7.42805C14.4621 4.14775 11.7783 1.46387 8.49796 1.46387Z" stroke="#1A1A1A" stroke-miterlimit="10" stroke-linecap="round"/>
<path d="M10.3371 1.75248C10.0289 1.66301 9.71085 1.59343 9.38282 1.55367C8.42855 1.43439 7.51405 1.50397 6.65918 1.75248C6.94745 1.0169 7.66315 0.5 8.49814 0.5C9.33312 0.5 10.0488 1.0169 10.3371 1.75248Z" stroke="#333333" stroke-miterlimit="10" stroke-linecap="round" stroke-linejoin="round"/>
<path d="M11.4798 17.5181C11.4798 19.1582 10.1378 20.5002 8.4977 20.5002C7.68259 20.5002 6.92713 20.1622 6.39037 19.6254C5.8536 19.0886 5.51562 18.3332 5.51562 17.5181" stroke="#333333" stroke-miterlimit="10"/>
</svg>
