<svg width="18" height="18" viewBox="0 0 18 18" fill="none" xmlns="http://www.w3.org/2000/svg">
<path d="M8.83333 4.2037V16.2407M8.83333 4.2037H5.55953C5.07715 4.2037 4.61454 4.0086 4.27345 3.66131C3.93236 3.31402 3.74074 2.84299 3.74074 2.35185C3.74074 1.86071 3.93236 1.38969 4.27345 1.0424C4.61454 0.695102 5.07715 0.5 5.55953 0.5C8.10583 0.5 8.83333 4.2037 8.83333 4.2037ZM8.83333 4.2037H12.1071C12.5895 4.2037 13.0521 4.0086 13.3932 3.66131C13.7343 3.31402 13.9259 2.84299 13.9259 2.35185C13.9259 1.86071 13.7343 1.38969 13.3932 1.0424C13.0521 0.695102 12.5895 0.5 12.1071 0.5C9.56083 0.5 8.83333 4.2037 8.83333 4.2037ZM2.35185 8.83333H15.3148V14.2037C15.3148 15.2408 15.3148 15.7594 15.113 16.1556C14.9355 16.504 14.6521 16.7873 14.3037 16.9648C13.9076 17.1667 13.389 17.1667 12.3519 17.1667H5.31481C4.27768 17.1667 3.75911 17.1667 3.36298 16.9648C3.01453 16.7873 2.73123 16.504 2.55369 16.1556C2.35185 15.7594 2.35185 15.2408 2.35185 14.2037V8.83333ZM1.98148 8.83333H15.6852C16.2038 8.83333 16.4631 8.83333 16.6611 8.73241C16.8354 8.64361 16.9769 8.50204 17.0657 8.32778C17.1667 8.12972 17.1667 7.87046 17.1667 7.35185V5.68519C17.1667 5.16662 17.1667 4.90733 17.0657 4.70927C16.9769 4.53505 16.8354 4.3934 16.6611 4.30462C16.4631 4.2037 16.2038 4.2037 15.6852 4.2037H1.98148C1.46292 4.2037 1.20363 4.2037 1.00556 4.30462C0.831343 4.3934 0.689694 4.53505 0.600917 4.70927C0.5 4.90733 0.5 5.16662 0.5 5.68519V7.35185C0.5 7.87046 0.5 8.12972 0.600917 8.32778C0.689694 8.50204 0.831343 8.64361 1.00556 8.73241C1.20363 8.83333 1.46292 8.83333 1.98148 8.83333Z" stroke="#4F46E5" stroke-linecap="round" stroke-linejoin="round"/>
</svg>
