<svg width="16" height="18" viewBox="0 0 16 18" fill="none" xmlns="http://www.w3.org/2000/svg">
<path d="M5.17655 8.85419L7.04717 10.7248L10.7884 6.98356M15.465 8.85419C15.465 13.0267 10.3582 16.0502 8.58239 16.9755C8.39037 17.0756 8.29431 17.1256 8.16112 17.1515C8.0573 17.1717 7.90765 17.1717 7.80383 17.1515C7.67065 17.1256 7.57459 17.0756 7.38257 16.9755C5.60675 16.0502 0.5 13.0267 0.5 8.85419V5.31647C0.5 4.56868 0.5 4.19479 0.622301 3.87339C0.730339 3.58945 0.905906 3.33612 1.13382 3.13526C1.39182 2.90789 1.7419 2.77661 2.44208 2.51404L7.45702 0.633445C7.65147 0.560529 7.74865 0.52407 7.84873 0.50961C7.9374 0.496797 8.02756 0.496797 8.11623 0.50961C8.21631 0.52407 8.31348 0.560529 8.50794 0.633445L13.5229 2.51404C14.2231 2.77661 14.5731 2.90789 14.8311 3.13526C15.059 3.33612 15.2346 3.58945 15.3426 3.87339C15.465 4.19479 15.465 4.56868 15.465 5.31647V8.85419Z" stroke="#1A1A1A" stroke-linecap="round" stroke-linejoin="round"/>
</svg>
