<svg width="14" height="17" viewBox="0 0 14 17" fill="none" xmlns="http://www.w3.org/2000/svg">
<path d="M7.16699 5.72754C7.16123 5.69966 7.15928 5.68043 7.15918 5.67969C7.15634 5.65753 7.15479 5.6349 7.15332 5.61523C7.1503 5.5747 7.14769 5.52395 7.14551 5.4668C7.14109 5.35108 7.13683 5.19129 7.13379 4.99707C7.1277 4.60773 7.125 4.06792 7.125 3.43652V0.511719C6.99173 0.509792 6.83858 0.506365 6.66992 0.504883C6.06987 0.499609 5.2781 0.496646 4.4834 0.49707C3.68858 0.497495 2.89199 0.500925 2.2832 0.506836C1.97884 0.509792 1.72297 0.513355 1.53809 0.517578C1.44548 0.519695 1.3729 0.522175 1.32227 0.524414C1.30858 0.525021 1.29702 0.525855 1.28809 0.526367C1.22594 0.542912 1.16251 0.568686 1.09961 0.602539C1.21506 0.572528 1.33789 0.560653 1.45215 0.553711C1.81941 0.531401 2.53289 0.531958 3.94043 0.530273H7.08887V3.26758C7.08887 4.49729 7.08989 5.0901 7.11328 5.42188C7.12466 5.58295 7.13964 5.65114 7.15039 5.68555C7.15457 5.69891 7.15894 5.71086 7.16699 5.72754ZM1.31152 0.519531H1.30957C1.30859 0.519759 1.30762 0.520275 1.30664 0.520508C1.30823 0.520151 1.30988 0.519918 1.31152 0.519531ZM12.3096 5.28027C11.7672 4.72643 11.0493 4.00288 10.3291 3.28223C9.60873 2.56142 8.88707 1.84397 8.33691 1.30469C8.06158 1.0348 7.82993 0.810988 7.66406 0.65332C7.6487 0.63872 7.63321 0.625597 7.61914 0.612305L7.97852 0.970703L12.9512 5.94336C12.792 5.77617 12.5722 5.54853 12.3096 5.28027ZM0.572266 15.4824C0.569942 15.4617 0.568527 15.4402 0.567383 15.4219C0.565001 15.3838 0.56334 15.3348 0.561523 15.2783C0.557847 15.164 0.553774 15.0032 0.550781 14.8047C0.544782 14.4066 0.539911 13.8462 0.536133 13.1797C0.528575 11.8464 0.525496 10.0813 0.526367 8.31738C0.527239 6.55323 0.532147 4.78879 0.541016 3.45801C0.545448 2.79284 0.551234 2.23408 0.557617 1.83789C0.5608 1.64042 0.564573 1.4804 0.568359 1.36719C0.570228 1.31138 0.571779 1.26229 0.574219 1.22461C0.575386 1.20665 0.577609 1.18513 0.580078 1.16406C0.58045 1.16089 0.580455 1.15683 0.581055 1.15234L0.511719 1.29883L0.501953 8.22852C0.498467 10.5861 0.499171 12.3602 0.503906 13.5576C0.506275 14.1564 0.510423 14.6099 0.514648 14.9199C0.516765 15.0752 0.519031 15.1927 0.521484 15.2734C0.522547 15.3083 0.522511 15.3344 0.523438 15.3525C0.535371 15.4026 0.552743 15.4525 0.574219 15.502C0.573156 15.4943 0.572826 15.4874 0.572266 15.4824ZM13.0869 15.5C13.1067 15.455 13.122 15.4093 13.1338 15.3633C13.1344 15.3532 13.136 15.3403 13.1367 15.3242C13.1392 15.2682 13.1422 15.1862 13.1445 15.0781C13.1491 14.8628 13.153 14.5522 13.1562 14.1494C13.1627 13.3436 13.166 12.1755 13.166 10.6797C13.166 8.45259 13.1648 7.29848 13.1562 6.68457C13.1539 6.51921 13.1507 6.3973 13.1475 6.30664L12.1152 6.31152L10.0088 6.32227H10.0078C8.87533 6.3257 8.27603 6.32864 7.95898 6.30371C7.89391 6.29859 7.81769 6.29145 7.73926 6.27539L7.89355 6.34863L10.209 6.35742L12.6328 6.36816L13.1299 6.37012V11.1113C13.1299 12.7197 13.1276 13.7879 13.1211 14.4629C13.1178 14.7997 13.114 15.0427 13.1084 15.207C13.1056 15.2882 13.1018 15.3557 13.0977 15.4082C13.0956 15.434 13.0929 15.4634 13.0889 15.4912C13.0886 15.4928 13.0876 15.4957 13.0869 15.5ZM0.518555 15.3301V15.333C0.519389 15.3369 0.520588 15.3408 0.521484 15.3447C0.520654 15.3401 0.51967 15.3352 0.518555 15.3301ZM6.72754 16.1621C8.57582 16.1656 9.97394 16.1649 10.9229 16.1602C11.3975 16.1578 11.7586 16.1546 12.0068 16.1504C12.1312 16.1483 12.2253 16.146 12.29 16.1436C12.3145 16.1426 12.3331 16.1414 12.3467 16.1406C12.4222 16.1229 12.4968 16.0927 12.5693 16.0537C12.5002 16.0701 12.4294 16.082 12.3623 16.0889C12.2555 16.0997 12.1193 16.1076 11.9463 16.1133C11.2583 16.1361 9.82744 16.1328 6.83008 16.1328C3.83318 16.1328 2.40283 16.1361 1.71484 16.1133C1.54161 16.1075 1.40474 16.0998 1.29785 16.0889C1.23568 16.0825 1.17067 16.0719 1.10645 16.0576C1.11565 16.0623 1.12443 16.0678 1.13379 16.0723L1.13672 16.0732L1.29883 16.1523L6.72754 16.1621ZM12.3271 16.1455H12.3301C12.3313 16.1452 12.3327 16.1448 12.334 16.1445C12.3318 16.145 12.3295 16.145 12.3271 16.1455Z" stroke="#1A1A1A"/>
<path d="M3.41211 9.07589V9.59375H6.8298H10.2475V9.07589V8.55803H6.8298H3.41211V9.07589Z" fill="black"/>
<path d="M3.41211 11.3181V11.8359H6.8298H10.2475V11.3181V10.8002H6.8298H3.41211V11.3181Z" fill="black"/>
<path d="M3.41211 13.49V14.0078H5.03473H6.65718V13.49V12.9721H5.03473H3.41211V13.49Z" fill="black"/>
</svg>
