<svg width="15" height="12" viewBox="0 0 15 12" fill="none" xmlns="http://www.w3.org/2000/svg">
<path d="M0.5 5.83333C0.5 3.31917 0.5 2.0621 1.28105 1.28105C2.0621 0.5 3.31917 0.5 5.83333 0.5H8.5C11.0141 0.5 12.2713 0.5 13.0523 1.28105C13.8333 2.0621 13.8333 3.31917 13.8333 5.83333C13.8333 8.34747 13.8333 9.6046 13.0523 10.3856C12.2713 11.1667 11.0141 11.1667 8.5 11.1667H5.83333C3.31917 11.1667 2.0621 11.1667 1.28105 10.3856C0.5 9.6046 0.5 8.34747 0.5 5.83333Z" stroke="#4D4D4D"/>
<path d="M5.83268 8.5H3.16602" stroke="#4D4D4D" stroke-linecap="round"/>
<path d="M8.5 8.5H7.5" stroke="#4D4D4D" stroke-linecap="round"/>
<path d="M0.5 4.5H13.8333" stroke="#4D4D4D" stroke-linecap="round"/>
</svg>
