<svg width="30" height="25" viewBox="0 0 30 25" fill="none" xmlns="http://www.w3.org/2000/svg">
<path d="M0.708984 12.0443C0.708984 6.70168 0.708985 4.0304 2.36871 2.37066C4.02845 0.710937 6.69973 0.710938 12.0423 0.710938H17.709C23.0515 0.710938 25.7229 0.710937 27.3825 2.37066C29.0423 4.0304 29.0423 6.70168 29.0423 12.0443C29.0423 17.3868 29.0423 20.0582 27.3825 21.7178C25.7229 23.3776 23.0515 23.3776 17.709 23.3776H12.0423C6.69973 23.3776 4.02845 23.3776 2.36871 21.7178C0.708985 20.0582 0.708984 17.3868 0.708984 12.0443Z" stroke="#4F46E5" stroke-width="1.41667"/>
<path d="M12.0417 17.7109H6.375" stroke="#4F46E5" stroke-width="1.41667" stroke-linecap="round"/>
<path d="M17.709 17.7109H15.584" stroke="#4F46E5" stroke-width="1.41667" stroke-linecap="round"/>
<path d="M0.708984 9.21094H29.0423" stroke="#4F46E5" stroke-width="1.41667" stroke-linecap="round"/>
</svg>
