<svg width="18" height="15" viewBox="0 0 18 15" fill="none" xmlns="http://www.w3.org/2000/svg">
<path d="M0.5 7.16667C0.5 4.02397 0.5 2.45262 1.47631 1.47631C2.45262 0.5 4.02397 0.5 7.16667 0.5H10.5C13.6427 0.5 15.2141 0.5 16.1903 1.47631C17.1667 2.45262 17.1667 4.02397 17.1667 7.16667C17.1667 10.3093 17.1667 11.8807 16.1903 12.857C15.2141 13.8333 13.6427 13.8333 10.5 13.8333H7.16667C4.02397 13.8333 2.45262 13.8333 1.47631 12.857C0.5 11.8807 0.5 10.3093 0.5 7.16667Z" stroke="#4F46E5"/>
<path d="M7.16683 10.5H3.8335" stroke="#4F46E5" stroke-linecap="round"/>
<path d="M10.5 10.5H9.25" stroke="#4F46E5" stroke-linecap="round"/>
<path d="M0.5 5.5H17.1667" stroke="#4F46E5" stroke-linecap="round"/>
</svg>
