<svg width="20" height="20" viewBox="0 0 20 20" fill="none" xmlns="http://www.w3.org/2000/svg">
<path d="M-9.53674e-07 2.77778C-9.53674e-07 12.2893 7.71067 20 17.2222 20C17.6514 20 18.0768 19.9843 18.4981 19.9534C18.9815 19.918 19.2233 19.9003 19.4433 19.7737C19.6255 19.6688 19.7984 19.4828 19.8897 19.2933C20 19.0647 20 18.7979 20 18.2644V15.1341C20 14.6854 20 14.4611 19.9262 14.2689C19.8609 14.099 19.755 13.9478 19.6177 13.8284C19.4622 13.6933 19.2514 13.6167 18.8298 13.4633L15.2666 12.1677C14.7761 11.9893 14.5308 11.9001 14.2981 11.9152C14.0929 11.9286 13.8955 11.9987 13.7277 12.1176C13.5375 12.2523 13.4032 12.4761 13.1346 12.9238L12.2222 14.4444C9.27789 13.111 6.891 10.721 5.55555 7.77778L7.07622 6.86536C7.52389 6.59681 7.74767 6.46253 7.88244 6.27229C8.00133 6.10453 8.07144 5.90708 8.08478 5.70189C8.09989 5.46919 8.01067 5.22392 7.83233 4.73339L6.53667 1.17023C6.38333 0.748622 6.30667 0.537811 6.17156 0.382333C6.05222 0.244989 5.901 0.139056 5.73111 0.0738335C5.53889 1.32455e-07 5.31455 0 4.86589 0H1.73555C1.20211 0 0.935332 8.27842e-08 0.706665 0.110278C0.517221 0.201622 0.33122 0.374456 0.226331 0.5567C0.0996647 0.776744 0.0819998 1.01847 0.0465553 1.50192C0.0156664 1.92318 -9.53674e-07 2.34864 -9.53674e-07 2.77778Z" stroke="#1A1A1A" stroke-linecap="round" stroke-linejoin="round"/>
</svg>
