<svg width="17" height="20" viewBox="0 0 17 20" fill="none" xmlns="http://www.w3.org/2000/svg">
<path d="M4.5459 11.4092H11.8174L12.0186 11.4141C13.018 11.4649 13.9658 11.8848 14.6768 12.5957C15.4352 13.3542 15.862 14.3824 15.8633 15.4551V19.0908C15.8633 19.1992 15.8207 19.3032 15.7441 19.3799C15.6674 19.4566 15.5626 19.5 15.4541 19.5H0.90918C0.80068 19.5 0.696835 19.4566 0.620117 19.3799C0.543398 19.3032 0.5 19.1993 0.5 19.0908V15.4551C0.501303 14.3824 0.928063 13.3542 1.68652 12.5957C2.39767 11.8846 3.346 11.4647 4.3457 11.4141L4.5459 11.4092ZM6.63379 0.807617C7.37287 0.501528 8.18611 0.422112 8.9707 0.578125C9.75528 0.734187 10.4763 1.119 11.042 1.68457C11.6077 2.25025 11.9933 2.97126 12.1494 3.75586C12.3055 4.5406 12.2251 5.35454 11.9189 6.09375C11.6128 6.83276 11.0948 7.46472 10.4297 7.90918C9.76442 8.3537 8.98176 8.58984 8.18164 8.58984C7.1093 8.58835 6.08155 8.16253 5.32324 7.4043C4.56498 6.64604 4.13828 5.61821 4.13672 4.5459C4.13672 3.74578 4.37384 2.96312 4.81836 2.29785C5.26287 1.63265 5.89463 1.11379 6.63379 0.807617Z" stroke="#B3B3B3"/>
</svg>
