<svg width="29" height="30" viewBox="0 0 29 30" fill="none" xmlns="http://www.w3.org/2000/svg">
<path d="M14.1074 19.1641C16.4546 19.1641 18.3574 17.2613 18.3574 14.9141C18.3574 12.5669 16.4546 10.6641 14.1074 10.6641C11.7602 10.6641 9.85742 12.5669 9.85742 14.9141C9.85742 17.2613 11.7602 19.1641 14.1074 19.1641Z" stroke="#4F46E5" stroke-width="1.5"/>
<path d="M16.6076 0.965673C16.0869 0.75 15.4268 0.75 14.1066 0.75C12.7865 0.75 12.1264 0.75 11.6057 0.965673C10.9115 1.25324 10.3599 1.80482 10.0723 2.49906C9.94103 2.81598 9.88965 3.18454 9.86955 3.72215C9.84001 4.51221 9.43485 5.24351 8.75014 5.63882C8.06547 6.03411 7.22956 6.01935 6.53058 5.64991C6.05495 5.39851 5.71008 5.25871 5.36998 5.21394C4.62495 5.11585 3.87148 5.31774 3.27532 5.7752C2.82819 6.11829 2.49815 6.68994 1.83807 7.83323C1.17799 8.97654 0.847948 9.54818 0.774381 10.107C0.676305 10.852 0.878194 11.6054 1.33565 12.2016C1.54444 12.4738 1.83789 12.7024 2.29333 12.9886C2.96286 13.4093 3.39366 14.126 3.39361 14.9167C3.39357 15.7073 2.96279 16.4239 2.29332 16.8445C1.83782 17.1308 1.54432 17.3596 1.33551 17.6317C0.878053 18.2278 0.676164 18.9812 0.774254 19.7262C0.847807 20.285 1.17785 20.8567 1.83793 22C2.49802 23.1432 2.82807 23.715 3.27518 24.058C3.87134 24.5154 4.62481 24.7173 5.36983 24.6193C5.70991 24.5745 6.05476 24.4347 6.53037 24.1834C7.22939 23.8139 8.06535 23.7992 8.75009 24.1944C9.43482 24.5898 9.84001 25.3211 9.86955 26.1113C9.88967 26.6488 9.94103 27.0174 10.0723 27.3343C10.3599 28.0285 10.9115 28.5801 11.6057 28.8677C12.1264 29.0833 12.7865 29.0833 14.1066 29.0833C15.4268 29.0833 16.0869 29.0833 16.6076 28.8677C17.3018 28.5801 17.8534 28.0285 18.1409 27.3343C18.2722 27.0174 18.3236 26.6488 18.3438 26.1112C18.3732 25.3211 18.7784 24.5898 19.4631 24.1944C20.1477 23.799 20.9837 23.8139 21.6828 24.1834C22.1584 24.4347 22.5032 24.5744 22.8432 24.6191C23.5883 24.7173 24.3418 24.5154 24.9379 24.058C25.385 23.7149 25.7151 23.1432 26.3751 21.9999C27.0353 20.8566 27.3654 20.285 27.4389 19.7262C27.5369 18.9812 27.3351 18.2277 26.8776 17.6316C26.6688 17.3594 26.3753 17.1306 25.9198 16.8445C25.2504 16.4239 24.8196 15.7072 24.8196 14.9165C24.8196 14.1259 25.2504 13.4095 25.9198 12.9889C26.3754 12.7026 26.6689 12.4739 26.8778 12.2016C27.3352 11.6055 27.5371 10.8521 27.439 10.107C27.3655 9.54828 27.0354 8.97662 26.3753 7.83333C25.7152 6.69004 25.3852 6.11839 24.9381 5.7753C24.3419 5.31784 23.5884 5.11595 22.8434 5.21404C22.5034 5.25881 22.1586 5.39859 21.6828 5.64997C20.9839 6.01942 20.1479 6.03419 19.4632 5.63886C18.7784 5.24354 18.3732 4.51218 18.3438 3.72208C18.3236 3.18451 18.2722 2.81597 18.1409 2.49906C17.8534 1.80482 17.3018 1.25324 16.6076 0.965673Z" stroke="#4F46E5" stroke-width="1.5"/>
</svg>
