<svg width="29" height="29" viewBox="0 0 29 29" fill="none" xmlns="http://www.w3.org/2000/svg">
<path d="M27.8984 0.767578C27.9668 0.770598 28.019 0.773397 28.0527 0.775391C28.0695 0.776382 28.0821 0.776833 28.0898 0.777344L28.0977 0.77832L28.1455 0.790039C28.1886 0.810432 28.2178 0.853625 28.2207 0.901367V0.904297C28.2269 1.00007 28.3078 2.40097 28.2051 4.26465C28.1017 6.1389 27.8158 8.42321 27.1143 10.3135C26.5647 11.7932 26.03 12.7883 24.6152 14.1064L24.3203 14.374C23.7764 14.8578 22.7968 15.4428 21.6377 16.0723C20.8084 16.5227 19.8661 17.007 19.0293 17.4541L18.2354 17.8867C17.5235 18.2851 16.7125 18.7232 16.2539 19.0078L15.8994 19.2275V24.1982C15.8994 24.2372 15.8815 24.2739 15.8535 24.2979L15.832 24.3164L15.8125 24.3359L12.5762 27.5547C12.5532 27.5722 12.5272 27.5829 12.498 27.583C12.4889 27.583 12.4729 27.5813 12.4531 27.5752C12.4233 27.565 12.3974 27.5437 12.3818 27.5146L12.3701 27.4824L11.2959 22.9395L11.252 22.7529L11.123 22.6094L9.12793 20.3984C8.16383 19.3285 7.58367 18.6853 7.24023 18.2617L7.07715 18.0605L6.8252 18.002L1.55957 16.7988H1.55859C1.5166 16.7893 1.47797 16.7559 1.46289 16.709C1.44968 16.6675 1.4579 16.6195 1.48828 16.583L4.71582 13.0869L4.72363 13.0771C4.75019 13.0474 4.78742 13.0312 4.82422 13.0312H10.1738L10.3887 12.6455C10.546 12.3626 10.7165 12.0371 10.8945 11.6895L11.4453 10.5986C11.939 9.61299 12.4501 8.55935 12.9795 7.58203C13.4448 6.72306 13.9031 5.96313 14.3467 5.39453L14.5361 5.16309C15.7957 3.69342 17.1221 2.74708 18.7266 2.14746C21.0125 1.29363 23.3587 0.949058 25.1445 0.820312C26.0346 0.756148 26.7791 0.745154 27.2988 0.750977C27.5584 0.753888 27.7618 0.76154 27.8984 0.767578ZM20.1777 6.27344C18.7886 6.27365 17.6611 7.40266 17.6611 8.79004C17.6613 10.1775 18.7899 11.3064 20.1777 11.3066C21.5667 11.3066 22.6951 10.1785 22.6953 8.79004C22.6953 7.40253 21.567 6.27344 20.1777 6.27344Z" stroke="#4F46E5" stroke-width="1.5"/>
<path d="M4.95998 20.1719C4.4526 20.5619 3.9858 20.7666 3.53489 20.9908C1.64212 21.9349 0.75 22.8641 0.75 27.2956L0.765001 28.1974L1.63241 28.178C6.31007 28.178 7.18454 27.1209 8.06078 25.3013C8.25226 24.9025 8.35903 24.6325 8.68288 24.0951" stroke="#4F46E5" stroke-width="1.5" stroke-linecap="round"/>
</svg>
