<svg width="29" height="29" viewBox="0 0 29 29" fill="none" xmlns="http://www.w3.org/2000/svg">
<path d="M5.25098 1.3916C6.52361 0.829707 7.92719 0.630864 9.30566 0.818359C10.684 1.00583 11.9833 1.57191 13.0596 2.45312C14.1359 3.33451 14.9477 4.4971 15.4033 5.81152C15.8589 7.12594 15.9405 8.54098 15.6406 9.89941L15.5527 10.3008L15.8428 10.5918L27.2861 22.0352C27.3821 22.1311 27.4587 22.2448 27.5107 22.3701C27.5628 22.4956 27.5898 22.6307 27.5898 22.7666C27.5898 22.9024 27.5627 23.0367 27.5107 23.1621C27.4717 23.2564 27.419 23.3443 27.3545 23.4229L27.2861 23.498L23.5049 27.2803H23.5039C23.408 27.3763 23.2943 27.4529 23.1689 27.5049C23.0434 27.5569 22.9083 27.583 22.7725 27.583C22.6368 27.583 22.5023 27.5568 22.377 27.5049C22.2828 27.4658 22.1947 27.4131 22.1162 27.3486L22.041 27.2803L10.5977 15.8369L10.3066 15.5449L9.9043 15.6348C8.54552 15.9378 7.12934 15.8578 5.81348 15.4033C4.49754 14.9487 3.33325 14.1377 2.45117 13.0605C1.56914 11.9834 1.00356 10.6824 0.817383 9.30273C0.642862 8.00932 0.808058 6.69404 1.29492 5.48633L1.39746 5.24609L1.47949 5.05859L5.50586 9.08398L6.03711 9.61523L6.56738 9.08301L9.08301 6.55957L9.61133 6.0293L5.05762 1.47559L5.25 1.3916H5.25098Z" stroke="#4F46E5" stroke-width="1.5"/>
<path d="M22.6 22.6013C22.7598 22.4414 23.0194 22.4409 23.1794 22.6006C23.3393 22.7605 23.3393 23.0207 23.1794 23.1806C23.0194 23.3404 22.7598 23.3398 22.6 23.18C22.4404 23.0201 22.4404 22.7611 22.6 22.6013Z" fill="black" stroke="#4F46E5" stroke-width="1.5"/>
</svg>
