<svg width="30" height="25" viewBox="0 0 30 25" fill="none" xmlns="http://www.w3.org/2000/svg">
<path d="M0.75 12.0833C0.75 6.74074 0.75 4.06946 2.40972 2.40972C4.06946 0.75 6.74074 0.75 12.0833 0.75H17.75C23.0925 0.75 25.7639 0.75 27.4236 2.40972C29.0833 4.06946 29.0833 6.74074 29.0833 12.0833C29.0833 17.4259 29.0833 20.0973 27.4236 21.7569C25.7639 23.4167 23.0925 23.4167 17.75 23.4167H12.0833C6.74074 23.4167 4.06946 23.4167 2.40972 21.7569C0.75 20.0973 0.75 17.4259 0.75 12.0833Z" stroke="#4F46E5" stroke-width="1.5"/>
<path d="M12.0827 17.75H6.41602" stroke="#4F46E5" stroke-width="1.5" stroke-linecap="round"/>
<path d="M17.75 17.75H15.625" stroke="#4F46E5" stroke-width="1.41667" stroke-linecap="round"/>
<path d="M0.75 9.25H29.0833" stroke="#4F46E5" stroke-width="1.41667" stroke-linecap="round"/>
</svg>
