<svg width="20" height="20" viewBox="0 0 20 20" fill="none" xmlns="http://www.w3.org/2000/svg">
<mask id="path-1-inside-1_242_4087" fill="white">
<path d="M19.5723 12.1391L17.9084 11.1574L19.5237 10.1834C19.6755 10.0905 19.7754 9.92617 19.7754 9.7376C19.7754 9.68006 19.7664 9.62529 19.749 9.5733L19.7504 9.57676C19.688 9.3667 19.4967 9.21626 19.27 9.21626C19.2499 9.21626 19.2298 9.21765 19.2104 9.21973H19.2124L14.1995 9.63985C15.6768 8.27342 17.1895 6.93542 18.7764 5.66328C18.7923 5.6508 18.8062 5.63832 18.8201 5.62515C19.1646 5.27991 19.3781 4.80363 19.3781 4.27744C19.3781 3.75126 19.1646 3.2736 18.8187 2.92835L16.4491 0.559465C16.1066 0.214219 15.6317 0 15.1069 0C15.1049 0 15.1035 0 15.1021 0H15.1007C14.5544 0.00207979 14.0629 0.232244 13.7149 0.600367L13.7142 0.601061C9.77919 5.50591 5.46223 9.82218 0.719609 13.6296L0.556692 13.7558C0.212139 14.101 0 14.5773 0 15.1035C0 15.6297 0.212832 16.1059 0.557385 16.4512L2.92766 18.8208C3.27082 19.1653 3.74502 19.3788 4.26982 19.3788C4.2719 19.3788 4.27398 19.3788 4.27606 19.3788C4.82235 19.3768 5.31457 19.1459 5.66259 18.7771L5.66328 18.7764C6.89175 17.2332 8.20826 15.7413 9.56359 14.2757L9.08662 19.4322C9.08524 19.4468 9.08454 19.4627 9.08454 19.4801C9.08454 19.7102 9.23429 19.905 9.44088 19.973L9.44435 19.9743C9.49149 19.991 9.54626 20 9.6031 20C9.6038 20 9.6038 20 9.60449 20H9.60518C9.79445 20 9.96014 19.8981 10.051 19.7463L10.0523 19.7442L11.0347 18.0817L12.0087 19.697C12.0996 19.8496 12.2632 19.9501 12.451 19.9501C12.5093 19.9501 12.5654 19.9404 12.6181 19.9224L12.6146 19.9237C12.8254 19.8544 12.9751 19.6596 12.9751 19.4294C12.9751 19.4142 12.9745 19.3989 12.9731 19.3844V19.3865L12.3928 12.4691L19.2644 13.1048C19.2804 13.1062 19.2956 13.1076 19.3116 13.1076C19.5986 13.1069 19.8315 12.8746 19.8315 12.5876C19.8315 12.3977 19.7303 12.232 19.5785 12.1411L19.5764 12.1398L19.5723 12.1391ZM14.4878 1.29433C14.6431 1.13765 14.8587 1.04059 15.0965 1.04059C15.0979 1.04059 15.0986 1.04059 15.1 1.04059H15.1014C15.1021 1.04059 15.1028 1.04059 15.1042 1.04059C15.3426 1.04059 15.5582 1.13765 15.7135 1.29433L18.0831 3.66391C18.2398 3.82058 18.3375 4.03757 18.3375 4.27675C18.3375 4.50761 18.2474 4.71697 18.1005 4.87227L18.1011 4.87157C16.4283 6.21512 14.8366 7.62938 13.2843 9.07414L10.304 6.09865C11.7474 4.54712 13.1568 2.95816 14.4878 1.29433ZM9.58785 6.8557L12.528 9.78959C11.5283 10.7431 10.5573 11.7153 9.61489 12.7062L6.67683 9.76256C7.66866 8.81972 8.63877 7.85099 9.58716 6.85639L9.58785 6.8557ZM11.8167 11.8943L11.8188 11.8923V11.8943H11.8167ZM4.88613 18.0859C4.72945 18.2426 4.51246 18.3396 4.27328 18.3396C4.03411 18.3396 3.81712 18.2426 3.66044 18.0859L1.29017 15.7177C1.13071 15.561 1.03158 15.3426 1.03158 15.1014C1.03158 14.8823 1.11269 14.6827 1.24649 14.5308L1.2458 14.5315C2.8514 13.2559 4.40015 11.886 5.91979 10.4766L8.89944 13.4611C7.49974 14.9697 6.14302 16.5032 4.88544 18.0859H4.88613ZM11.4721 16.7985C11.3799 16.6467 11.2149 16.5468 11.0271 16.5468H11.0243C10.8357 16.5475 10.6707 16.6495 10.5806 16.8006L10.5792 16.8027L10.3331 17.2186L10.7186 13.0528C10.9272 12.8358 11.1269 12.6126 11.3383 12.3977L11.7467 17.254L11.4721 16.7985ZM16.6293 11.6094L17.0453 11.8555L12.32 11.4174C12.5384 11.2025 12.7686 10.9966 12.9897 10.7837L17.082 10.4413L16.6259 10.7158C16.4741 10.808 16.3742 10.973 16.3742 11.1609C16.3742 11.3508 16.4761 11.5165 16.628 11.6073L16.63 11.6087L16.6293 11.6094Z"/>
</mask>
<path d="M19.5723 12.1391L17.9084 11.1574L19.5237 10.1834C19.6755 10.0905 19.7754 9.92617 19.7754 9.7376C19.7754 9.68006 19.7664 9.62529 19.749 9.5733L19.7504 9.57676C19.688 9.3667 19.4967 9.21626 19.27 9.21626C19.2499 9.21626 19.2298 9.21765 19.2104 9.21973H19.2124L14.1995 9.63985C15.6768 8.27342 17.1895 6.93542 18.7764 5.66328C18.7923 5.6508 18.8062 5.63832 18.8201 5.62515C19.1646 5.27991 19.3781 4.80363 19.3781 4.27744C19.3781 3.75126 19.1646 3.2736 18.8187 2.92835L16.4491 0.559465C16.1066 0.214219 15.6317 0 15.1069 0C15.1049 0 15.1035 0 15.1021 0H15.1007C14.5544 0.00207979 14.0629 0.232244 13.7149 0.600367L13.7142 0.601061C9.77919 5.50591 5.46223 9.82218 0.719609 13.6296L0.556692 13.7558C0.212139 14.101 0 14.5773 0 15.1035C0 15.6297 0.212832 16.1059 0.557385 16.4512L2.92766 18.8208C3.27082 19.1653 3.74502 19.3788 4.26982 19.3788C4.2719 19.3788 4.27398 19.3788 4.27606 19.3788C4.82235 19.3768 5.31457 19.1459 5.66259 18.7771L5.66328 18.7764C6.89175 17.2332 8.20826 15.7413 9.56359 14.2757L9.08662 19.4322C9.08524 19.4468 9.08454 19.4627 9.08454 19.4801C9.08454 19.7102 9.23429 19.905 9.44088 19.973L9.44435 19.9743C9.49149 19.991 9.54626 20 9.6031 20C9.6038 20 9.6038 20 9.60449 20H9.60518C9.79445 20 9.96014 19.8981 10.051 19.7463L10.0523 19.7442L11.0347 18.0817L12.0087 19.697C12.0996 19.8496 12.2632 19.9501 12.451 19.9501C12.5093 19.9501 12.5654 19.9404 12.6181 19.9224L12.6146 19.9237C12.8254 19.8544 12.9751 19.6596 12.9751 19.4294C12.9751 19.4142 12.9745 19.3989 12.9731 19.3844V19.3865L12.3928 12.4691L19.2644 13.1048C19.2804 13.1062 19.2956 13.1076 19.3116 13.1076C19.5986 13.1069 19.8315 12.8746 19.8315 12.5876C19.8315 12.3977 19.7303 12.232 19.5785 12.1411L19.5764 12.1398L19.5723 12.1391ZM14.4878 1.29433C14.6431 1.13765 14.8587 1.04059 15.0965 1.04059C15.0979 1.04059 15.0986 1.04059 15.1 1.04059H15.1014C15.1021 1.04059 15.1028 1.04059 15.1042 1.04059C15.3426 1.04059 15.5582 1.13765 15.7135 1.29433L18.0831 3.66391C18.2398 3.82058 18.3375 4.03757 18.3375 4.27675C18.3375 4.50761 18.2474 4.71697 18.1005 4.87227L18.1011 4.87157C16.4283 6.21512 14.8366 7.62938 13.2843 9.07414L10.304 6.09865C11.7474 4.54712 13.1568 2.95816 14.4878 1.29433ZM9.58785 6.8557L12.528 9.78959C11.5283 10.7431 10.5573 11.7153 9.61489 12.7062L6.67683 9.76256C7.66866 8.81972 8.63877 7.85099 9.58716 6.85639L9.58785 6.8557ZM11.8167 11.8943L11.8188 11.8923V11.8943H11.8167ZM4.88613 18.0859C4.72945 18.2426 4.51246 18.3396 4.27328 18.3396C4.03411 18.3396 3.81712 18.2426 3.66044 18.0859L1.29017 15.7177C1.13071 15.561 1.03158 15.3426 1.03158 15.1014C1.03158 14.8823 1.11269 14.6827 1.24649 14.5308L1.2458 14.5315C2.8514 13.2559 4.40015 11.886 5.91979 10.4766L8.89944 13.4611C7.49974 14.9697 6.14302 16.5032 4.88544 18.0859H4.88613ZM11.4721 16.7985C11.3799 16.6467 11.2149 16.5468 11.0271 16.5468H11.0243C10.8357 16.5475 10.6707 16.6495 10.5806 16.8006L10.5792 16.8027L10.3331 17.2186L10.7186 13.0528C10.9272 12.8358 11.1269 12.6126 11.3383 12.3977L11.7467 17.254L11.4721 16.7985ZM16.6293 11.6094L17.0453 11.8555L12.32 11.4174C12.5384 11.2025 12.7686 10.9966 12.9897 10.7837L17.082 10.4413L16.6259 10.7158C16.4741 10.808 16.3742 10.973 16.3742 11.1609C16.3742 11.3508 16.4761 11.5165 16.628 11.6073L16.63 11.6087L16.6293 11.6094Z" stroke="#4F46E5" stroke-width="2" mask="url(#path-1-inside-1_242_4087)"/>
</svg>
