<svg width="18" height="18" viewBox="0 0 18 18" fill="none" xmlns="http://www.w3.org/2000/svg">
<path d="M17.1667 17.1667L11.6111 11.6111M0.5 6.98148C0.5 7.83264 0.667649 8.67547 0.993373 9.46184C1.3191 10.2482 1.79652 10.9627 2.39838 11.5646C3.00024 12.1664 3.71476 12.6439 4.50113 12.9696C5.2875 13.2953 6.13032 13.463 6.98148 13.463C7.83264 13.463 8.67547 13.2953 9.46184 12.9696C10.2482 12.6439 10.9627 12.1664 11.5646 11.5646C12.1664 10.9627 12.6439 10.2482 12.9696 9.46184C13.2953 8.67547 13.463 7.83264 13.463 6.98148C13.463 6.13032 13.2953 5.2875 12.9696 4.50113C12.6439 3.71476 12.1664 3.00024 11.5646 2.39838C10.9627 1.79652 10.2482 1.3191 9.46184 0.993373C8.67547 0.667648 7.83264 0.5 6.98148 0.5C6.13032 0.5 5.2875 0.667648 4.50113 0.993373C3.71476 1.3191 3.00024 1.79652 2.39838 2.39838C1.79652 3.00024 1.3191 3.71476 0.993373 4.50113C0.667649 5.2875 0.5 6.13032 0.5 6.98148Z" stroke="#4D4D4D" stroke-linecap="round" stroke-linejoin="round"/>
</svg>
