<svg width="17" height="18" viewBox="0 0 17 18" fill="none" xmlns="http://www.w3.org/2000/svg">
<path d="M8.35693 11.3335C9.73765 11.3335 10.8569 10.2142 10.8569 8.8335C10.8569 7.45278 9.73765 6.3335 8.35693 6.3335C6.97622 6.3335 5.85693 7.45278 5.85693 8.8335C5.85693 10.2142 6.97622 11.3335 8.35693 11.3335Z" stroke="#4F46E5"/>
<path d="M9.82802 0.626867C9.52168 0.5 9.13343 0.5 8.35685 0.5C7.58027 0.5 7.19202 0.5 6.88568 0.626867C6.47732 0.796025 6.15287 1.12048 5.98371 1.52886C5.90649 1.71528 5.87627 1.93208 5.86444 2.24832C5.84707 2.71307 5.60873 3.14324 5.20597 3.37577C4.80322 3.6083 4.31151 3.59962 3.90034 3.3823C3.62056 3.23442 3.41769 3.15218 3.21763 3.12585C2.77938 3.06815 2.33617 3.18691 1.98548 3.456C1.72247 3.65782 1.52832 3.99408 1.14004 4.66661C0.751758 5.33914 0.557617 5.6754 0.514342 6.00409C0.45665 6.44233 0.575408 6.88555 0.8445 7.23625C0.967317 7.39633 1.13993 7.53083 1.40784 7.69917C1.80168 7.94667 2.05509 8.36825 2.05507 8.83333C2.05504 9.29842 1.80164 9.71991 1.40783 9.96733C1.13989 10.1357 0.96725 10.2703 0.844417 10.4304C0.575325 10.7811 0.456567 11.2242 0.514267 11.6625C0.557533 11.9912 0.751675 12.3275 1.13996 13C1.52825 13.6725 1.72239 14.0088 1.9854 14.2106C2.33608 14.4797 2.7793 14.5984 3.21755 14.5407C3.41759 14.5144 3.62045 14.4322 3.90022 14.2843C4.31141 14.067 4.80315 14.0583 5.20593 14.2908C5.60872 14.5234 5.84707 14.9536 5.86444 15.4184C5.87627 15.7346 5.90649 15.9514 5.98371 16.1378C6.15287 16.5462 6.47732 16.8707 6.88568 17.0398C7.19202 17.1667 7.58027 17.1667 8.35685 17.1667C9.13343 17.1667 9.52168 17.1667 9.82802 17.0398C10.2363 16.8707 10.5608 16.5462 10.7299 16.1378C10.8072 15.9514 10.8374 15.7346 10.8493 15.4183C10.8666 14.9536 11.1049 14.5234 11.5077 14.2908C11.9104 14.0582 12.4022 14.067 12.8134 14.2843C13.0932 14.4322 13.296 14.5143 13.496 14.5407C13.9343 14.5984 14.3775 14.4797 14.7282 14.2106C14.9912 14.0087 15.1854 13.6725 15.5736 12.9999C15.9619 12.3274 16.1561 11.9912 16.1993 11.6625C16.257 11.2242 16.1383 10.781 15.8692 10.4303C15.7463 10.2702 15.5737 10.1357 15.3058 9.96733C14.912 9.71991 14.6586 9.29833 14.6586 8.83325C14.6586 8.36817 14.912 7.94675 15.3058 7.69933C15.5738 7.53092 15.7464 7.39642 15.8693 7.23625C16.1383 6.88561 16.2571 6.44239 16.1994 6.00414C16.1562 5.67546 15.962 5.33919 15.5737 4.66667C15.1854 3.99414 14.9913 3.65787 14.7283 3.45606C14.3776 3.18697 13.9343 3.06821 13.4961 3.12591C13.2961 3.15224 13.0933 3.23447 12.8134 3.38233C12.4023 3.59966 11.9105 3.60835 11.5078 3.3758C11.1049 3.14326 10.8666 2.71305 10.8493 2.24828C10.8374 1.93207 10.8072 1.71527 10.7299 1.52886C10.5608 1.12048 10.2363 0.796025 9.82802 0.626867Z" stroke="#4F46E5"/>
</svg>
