<svg width="18" height="21" viewBox="0 0 18 21" fill="none" xmlns="http://www.w3.org/2000/svg">
<path d="M6.05555 9.94184C6.05555 11.476 4.8119 12.7196 3.27778 12.7196C1.74366 12.7196 0.5 11.476 0.5 9.94184C0.5 8.40773 1.74366 7.16406 3.27778 7.16406C4.8119 7.16406 6.05555 8.40773 6.05555 9.94184Z" stroke="#4F46E5"/>
<path d="M11.9665 15.8316L6.05469 11.9297" stroke="#4F46E5" stroke-linecap="round"/>
<path d="M12.0778 4.76562L6.16602 8.66747" stroke="#4F46E5" stroke-linecap="round"/>
<path d="M17.1669 17.7231C17.1669 19.2572 15.9232 20.5009 14.3891 20.5009C12.855 20.5009 11.6113 19.2572 11.6113 17.7231C11.6113 16.189 12.855 14.9453 14.3891 14.9453C15.9232 14.9453 17.1669 16.189 17.1669 17.7231Z" stroke="#4F46E5"/>
<path d="M17.1669 3.27778C17.1669 4.8119 15.9232 6.05555 14.3891 6.05555C12.855 6.05555 11.6113 4.8119 11.6113 3.27778C11.6113 1.74366 12.855 0.5 14.3891 0.5C15.9232 0.5 17.1669 1.74366 17.1669 3.27778Z" stroke="#4F46E5"/>
</svg>
