<svg width="244" height="89" viewBox="0 0 244 89" fill="none" xmlns="http://www.w3.org/2000/svg">
<path fill-rule="evenodd" clip-rule="evenodd" d="M57.2571 29.7003C58.1622 30.0601 59.0102 30.4926 59.7965 31.0123C62.3967 32.6591 64.3474 34.8472 65.6475 37.5776C66.9473 40.2639 67.5994 43.1659 67.5997 46.2854V49.539H41.0793C41.234 50.8993 41.5292 52.1553 41.9892 53.3057C42.6827 54.9959 43.7439 56.3401 45.174 57.3369C46.6041 58.29 48.4238 58.7706 50.6336 58.7706C52.8434 58.7704 54.6431 58.3358 56.0297 57.4692C57.4162 56.5591 58.3061 55.4521 58.6961 54.1521H67.0124C66.4925 56.5787 65.4966 58.7016 64.0234 60.5217C62.5499 62.3419 60.665 63.7519 58.3681 64.7486C56.1148 65.7452 53.5368 66.2457 50.6336 66.2458C47.5999 66.2458 44.9316 65.7253 42.6347 64.6851C40.3816 63.6451 38.4959 62.2549 36.9793 60.5217C35.5066 58.7453 34.3786 56.7732 33.5988 54.6071C32.8625 52.441 32.4933 50.2311 32.4931 47.9783V46.7404C32.4933 44.4007 32.8622 42.1458 33.5988 39.9794C34.1876 38.3113 34.9745 36.7909 35.9583 35.4191C39.1068 35.9084 42.2752 35.853 45.3433 35.2551C49.6335 34.419 53.7181 32.5448 57.2571 29.7003ZM50.2421 35.9534C48.2489 35.9535 46.5607 36.4084 45.174 37.3183C43.7876 38.2282 42.726 39.548 41.9892 41.2808C41.6501 42.1074 41.3954 43.0182 41.2221 44.0106H58.95C58.7906 42.8886 58.5419 41.8699 58.1723 40.9581C57.5223 39.3546 56.5268 38.1163 55.1833 37.2496C53.8832 36.383 52.2354 35.9534 50.2421 35.9534Z" fill="#4F46E5"/>
<path fill-rule="evenodd" clip-rule="evenodd" d="M198.032 28.4729C201.846 28.4729 205.03 29.3224 207.587 31.0123C210.187 32.6591 212.138 34.8472 213.438 37.5776C214.738 40.2639 215.39 43.1659 215.39 46.2854V49.539H188.87C189.024 50.8993 189.319 52.1553 189.78 53.3057C190.473 54.9959 191.534 56.3401 192.964 57.3369C194.394 58.29 196.214 58.7706 198.424 58.7706C200.634 58.7704 202.433 58.3358 203.82 57.4692C205.206 56.5591 206.096 55.4521 206.486 54.1521H214.803C214.283 56.5787 213.287 58.7016 211.814 60.5217C210.34 62.3419 208.455 63.7519 206.158 64.7486C203.905 65.7452 201.327 66.2457 198.424 66.2458C195.39 66.2458 192.722 65.7253 190.425 64.6851C188.172 63.6451 186.286 62.2549 184.77 60.5217C183.297 58.7453 182.169 56.7732 181.389 54.6071C180.653 52.441 180.284 50.2311 180.283 47.9783V46.7404C180.284 44.4007 180.653 42.1458 181.389 39.9794C182.169 37.7696 183.296 35.8182 184.77 34.1283C186.286 32.395 188.151 31.0303 190.361 30.0336C192.572 28.9936 195.129 28.473 198.032 28.4729ZM198.032 35.9534C196.039 35.9535 194.351 36.4084 192.964 37.3183C191.578 38.2282 190.516 39.548 189.78 41.2808C189.44 42.1074 189.186 43.0182 189.012 44.0106H206.74C206.581 42.8886 206.332 41.8699 205.963 40.9581C205.313 39.3546 204.317 38.1163 202.974 37.2496C201.674 36.383 200.026 35.9534 198.032 35.9534Z" fill="#4F46E5"/>
<path fill-rule="evenodd" clip-rule="evenodd" d="M87.3061 29.1924C90.9458 29.1926 93.9587 29.6675 96.342 30.6208C98.7682 31.5743 100.588 33.0705 101.802 35.107C103.058 37.1435 103.685 39.808 103.685 43.1007V65.0079H96.5377V58.1886C96.2469 59.1104 95.8818 59.9545 95.432 60.7174C94.4786 62.4076 93.1343 63.7116 91.4008 64.6217C89.7107 65.4883 87.6283 65.9178 85.1582 65.9178C82.6017 65.9177 80.3472 65.4629 78.3972 64.5529C76.491 63.6428 74.9942 62.3437 73.911 60.6539C72.8713 58.964 72.3505 56.9266 72.3504 54.5436C72.3504 51.9437 72.9825 49.8208 74.239 48.1741C75.5392 46.5272 77.3382 45.289 79.6351 44.4656C81.975 43.6425 84.705 43.2329 87.8245 43.2329H95.0405V42.9049C95.0403 40.8689 94.5399 39.3517 93.5434 38.3552C92.5467 37.3594 91.0093 36.8635 88.9302 36.8634C87.8473 36.8634 86.5472 36.8836 85.0313 36.9269C83.5144 36.9702 81.973 37.0359 80.4128 37.1226C78.8963 37.1659 77.5313 37.2317 76.3181 37.3183V29.6474C77.3149 29.5607 78.4418 29.4695 79.6986 29.3829C80.9554 29.2962 82.234 29.2559 83.5341 29.2559C84.8776 29.2126 86.136 29.1924 87.3061 29.1924ZM87.6923 48.629C85.6131 48.6294 84.0098 49.1499 82.8834 50.1897C81.8009 51.1863 81.2593 52.4858 81.2593 54.0886C81.2594 55.6915 81.8005 56.9911 82.8834 57.9876C84.0098 58.984 85.6131 59.4844 87.6923 59.4848C88.9491 59.4848 90.1015 59.2674 91.1416 58.8341C92.2235 58.3577 93.1097 57.5772 93.8026 56.4957C94.5394 55.3689 94.9539 53.8477 95.0405 51.9408V48.629H87.6923Z" fill="#4F46E5"/>
<path d="M9.2316 56.8819H28.409V65.0079H0V17.5537H9.2316V56.8819Z" fill="#4F46E5"/>
<path d="M134.427 37.1226H131.956C128.923 37.1228 126.563 37.9465 124.873 39.5932C123.226 41.1967 122.402 43.5367 122.402 46.6134V65.0079H113.366V29.7109H120.519V41.1485C120.92 37.7814 121.937 35.1163 123.571 33.1549C125.738 30.5551 128.923 29.2563 133.126 29.2559H134.427V37.1226Z" fill="#4F46E5"/>
<path d="M160.106 28.6052C164.309 28.6054 167.494 29.9703 169.66 32.6999C171.827 35.3869 172.914 39.4196 172.914 44.7936V65.0079H163.878V44.0106C163.878 41.8442 163.246 40.09 161.99 38.7467C160.776 37.4036 159.087 36.7314 156.921 36.7311C154.712 36.7311 152.912 37.4241 151.525 38.8102C150.182 40.1533 149.51 41.9738 149.51 44.2698V65.0079H140.474V29.7109H147.626V38.424C147.836 37.5133 148.092 36.6652 148.404 35.8847C149.357 33.4582 150.768 31.6384 152.631 30.4251C154.538 29.2122 156.898 28.6052 159.715 28.6052H160.106Z" fill="#4F46E5"/>
<path d="M244 37.1226H241.529C238.496 37.1228 236.136 37.9465 234.446 39.5932C232.799 41.1967 231.975 43.5367 231.975 46.6134V65.0079H222.939V29.7109H230.092V41.1485C230.493 37.7814 231.51 35.1163 233.144 33.1549C235.311 30.5551 238.496 29.2563 242.699 29.2559H244V37.1226Z" fill="#4F46E5"/>
<path d="M67.3926 27.3157L68.3418 32.1867C68.5165 33.083 67.9308 33.9521 67.0345 34.1268L65.4109 34.4432C64.5146 34.6179 63.6454 34.0322 63.4708 33.1359L62.5215 28.2649C62.3469 27.3687 62.9325 26.4995 63.8288 26.3248L61.4434 14.084L42.978 16.1724C42.7654 16.6469 42.3606 17.0258 41.8134 17.1324C40.9172 17.3071 40.048 16.7214 39.8734 15.8252C39.6987 14.9289 40.2843 14.0597 41.1806 13.8851C41.8236 13.7598 42.4435 14.035 42.8125 14.5277L61.2581 12.4415C62.1089 12.3448 62.9035 12.9281 63.0674 13.7692L65.4525 26.0084C66.3487 25.8338 67.2179 26.4194 67.3926 27.3157ZM43.9413 28.0516C43.0532 28.2247 42.1299 28.2175 41.2329 28.0165L29.9606 25.496L30.6653 29.1119C31.0247 30.9564 32.3959 32.4402 34.2063 32.9436C37.7648 33.9337 41.4493 34.0567 44.9776 33.3691C48.5058 32.6816 51.8745 31.1841 54.7996 28.9321C56.2901 27.7855 57.0038 25.8954 56.6443 24.0509L55.9397 20.435L46.4387 27.0037C45.6825 27.5252 44.8295 27.8785 43.9413 28.0516ZM63.786 9.62143L41.4002 4.61677C40.7252 4.46518 40.0349 4.45982 39.3692 4.58955C38.7034 4.71928 38.0659 4.98508 37.4972 5.37905L18.6284 18.4215C17.4418 19.2426 17.8003 21.0822 19.2081 21.3961L41.5925 26.4027C42.9403 26.7029 44.3626 26.4257 45.4975 25.6417L59.482 15.9712L43.9189 17.7316C43.4537 18.2588 42.8345 18.6188 42.1299 18.7561C40.3389 19.1051 38.5987 17.9325 38.2497 16.1416C37.9007 14.3507 39.0733 12.6104 40.8642 12.2614C41.7605 12.0867 42.6594 12.2891 43.3804 12.7974L61.0722 10.7958C62.4606 10.6381 63.7591 11.3946 64.3725 12.5879C65.549 11.7671 65.1905 9.93591 63.786 9.62143Z" fill="#1A1A1A"/>
<path d="M41.2307 28.0178C42.1277 28.2188 43.0509 28.2259 43.9391 28.0528C44.8272 27.8798 45.6803 27.5265 46.4365 27.005L55.9375 20.4362L56.6421 24.0521C57.0016 25.8966 56.2879 27.7867 54.7974 28.9334C51.8723 31.1853 48.5036 32.6828 44.9754 33.3704C41.4471 34.0579 37.7626 33.935 34.204 32.9448C32.3936 32.4415 31.0225 30.9576 30.6631 29.1131L29.9584 25.4972L41.2307 28.0178Z" fill="#1A1A1A"/>
<path d="M59.4854 85.9824V77.3424H60.3674V85.1364H64.4714V85.9824H59.4854ZM68.2363 86.1624C67.6043 86.1624 67.0563 86.0224 66.5923 85.7424C66.1323 85.4624 65.7743 85.0684 65.5183 84.5604C65.2623 84.0524 65.1343 83.4564 65.1343 82.7724C65.1343 82.0644 65.2603 81.4524 65.5123 80.9364C65.7643 80.4204 66.1183 80.0224 66.5743 79.7424C67.0343 79.4624 67.5763 79.3224 68.2003 79.3224C68.8403 79.3224 69.3863 79.4704 69.8383 79.7664C70.2903 80.0584 70.6323 80.4784 70.8643 81.0264C71.0963 81.5744 71.2023 82.2284 71.1823 82.9884H70.2823V82.6764C70.2663 81.8364 70.0843 81.2024 69.7363 80.7744C69.3923 80.3464 68.8883 80.1324 68.2243 80.1324C67.5283 80.1324 66.9943 80.3584 66.6223 80.8104C66.2543 81.2624 66.0703 81.9064 66.0703 82.7424C66.0703 83.5584 66.2543 84.1924 66.6223 84.6444C66.9943 85.0924 67.5203 85.3164 68.2003 85.3164C68.6643 85.3164 69.0683 85.2104 69.4123 84.9984C69.7603 84.7824 70.0343 84.4724 70.2343 84.0684L71.0563 84.3864C70.8003 84.9504 70.4223 85.3884 69.9223 85.7004C69.4263 86.0084 68.8643 86.1624 68.2363 86.1624ZM65.7583 82.9884V82.2504H70.7083V82.9884H65.7583ZM74.2506 86.1624C73.7626 86.1624 73.3526 86.0744 73.0206 85.8984C72.6926 85.7224 72.4466 85.4884 72.2826 85.1964C72.1186 84.9044 72.0366 84.5864 72.0366 84.2424C72.0366 83.8904 72.1066 83.5904 72.2466 83.3424C72.3906 83.0904 72.5846 82.8844 72.8286 82.7244C73.0766 82.5644 73.3626 82.4424 73.6866 82.3584C74.0146 82.2784 74.3766 82.2084 74.7726 82.1484C75.1726 82.0844 75.5626 82.0304 75.9426 81.9864C76.3266 81.9384 76.6626 81.8924 76.9506 81.8484L76.6386 82.0404C76.6506 81.4004 76.5266 80.9264 76.2666 80.6184C76.0066 80.3104 75.5546 80.1564 74.9106 80.1564C74.4666 80.1564 74.0906 80.2564 73.7826 80.4564C73.4786 80.6564 73.2646 80.9724 73.1406 81.4044L72.2826 81.1524C72.4306 80.5724 72.7286 80.1224 73.1766 79.8024C73.6246 79.4824 74.2066 79.3224 74.9226 79.3224C75.5146 79.3224 76.0166 79.4344 76.4286 79.6584C76.8446 79.8784 77.1386 80.1984 77.3106 80.6184C77.3906 80.8064 77.4426 81.0164 77.4666 81.2484C77.4906 81.4804 77.5026 81.7164 77.5026 81.9564V85.9824H76.7166V84.3564L76.9446 84.4524C76.7246 85.0084 76.3826 85.4324 75.9186 85.7244C75.4546 86.0164 74.8986 86.1624 74.2506 86.1624ZM74.3526 85.4004C74.7646 85.4004 75.1246 85.3264 75.4326 85.1784C75.7406 85.0304 75.9886 84.8284 76.1766 84.5724C76.3646 84.3124 76.4866 84.0204 76.5426 83.6964C76.5906 83.4884 76.6166 83.2604 76.6206 83.0124C76.6246 82.7604 76.6266 82.5724 76.6266 82.4484L76.9626 82.6224C76.6626 82.6624 76.3366 82.7024 75.9846 82.7424C75.6366 82.7824 75.2926 82.8284 74.9526 82.8804C74.6166 82.9324 74.3126 82.9944 74.0406 83.0664C73.8566 83.1184 73.6786 83.1924 73.5066 83.2884C73.3346 83.3804 73.1926 83.5044 73.0806 83.6604C72.9726 83.8164 72.9186 84.0104 72.9186 84.2424C72.9186 84.4304 72.9646 84.6124 73.0566 84.7884C73.1526 84.9644 73.3046 85.1104 73.5126 85.2264C73.7246 85.3424 74.0046 85.4004 74.3526 85.4004ZM79.0646 85.9824V79.5024H79.8566V81.0624L79.7006 80.8584C79.7726 80.6664 79.8666 80.4904 79.9826 80.3304C80.0986 80.1664 80.2246 80.0324 80.3606 79.9284C80.5286 79.7804 80.7246 79.6684 80.9486 79.5924C81.1726 79.5124 81.3986 79.4664 81.6266 79.4544C81.8546 79.4384 82.0626 79.4544 82.2506 79.5024V80.3304C82.0146 80.2704 81.7566 80.2564 81.4766 80.2884C81.1966 80.3204 80.9386 80.4324 80.7026 80.6244C80.4866 80.7924 80.3246 80.9944 80.2166 81.2304C80.1086 81.4624 80.0366 81.7104 80.0006 81.9744C79.9646 82.2344 79.9466 82.4924 79.9466 82.7484V85.9824H79.0646ZM88.0688 85.9824V82.6764C88.0688 82.3164 88.0348 81.9864 87.9668 81.6864C87.8988 81.3824 87.7888 81.1184 87.6368 80.8944C87.4888 80.6664 87.2948 80.4904 87.0548 80.3664C86.8188 80.2424 86.5308 80.1804 86.1908 80.1804C85.8788 80.1804 85.6028 80.2344 85.3628 80.3424C85.1268 80.4504 84.9268 80.6064 84.7628 80.8104C84.6028 81.0104 84.4808 81.2544 84.3968 81.5424C84.3128 81.8304 84.2708 82.1584 84.2708 82.5264L83.6468 82.3884C83.6468 81.7244 83.7628 81.1664 83.9948 80.7144C84.2268 80.2624 84.5468 79.9204 84.9548 79.6884C85.3628 79.4564 85.8308 79.3404 86.3588 79.3404C86.7468 79.3404 87.0848 79.4004 87.3728 79.5204C87.6648 79.6404 87.9108 79.8024 88.1108 80.0064C88.3148 80.2104 88.4788 80.4444 88.6028 80.7084C88.7268 80.9684 88.8168 81.2464 88.8728 81.5424C88.9288 81.8344 88.9568 82.1264 88.9568 82.4184V85.9824H88.0688ZM83.3828 85.9824V79.5024H84.1808V81.0984H84.2708V85.9824H83.3828ZM95.9162 86.1624C95.3122 86.1624 94.7682 86.0624 94.2842 85.8624C93.8042 85.6584 93.4062 85.3704 93.0902 84.9984C92.7782 84.6264 92.5742 84.1844 92.4782 83.6724L93.3782 83.5224C93.5222 84.0824 93.8262 84.5224 94.2902 84.8424C94.7542 85.1584 95.3082 85.3164 95.9522 85.3164C96.3762 85.3164 96.7562 85.2504 97.0922 85.1184C97.4282 84.9824 97.6922 84.7904 97.8842 84.5424C98.0762 84.2944 98.1722 84.0004 98.1722 83.6604C98.1722 83.4364 98.1322 83.2464 98.0522 83.0904C97.9722 82.9304 97.8662 82.7984 97.7342 82.6944C97.6022 82.5904 97.4582 82.5044 97.3022 82.4364C97.1462 82.3644 96.9942 82.3064 96.8462 82.2624L94.6562 81.6084C94.3922 81.5324 94.1482 81.4364 93.9242 81.3204C93.7002 81.2004 93.5042 81.0584 93.3362 80.8944C93.1722 80.7264 93.0442 80.5304 92.9522 80.3064C92.8602 80.0824 92.8142 79.8264 92.8142 79.5384C92.8142 79.0504 92.9422 78.6284 93.1982 78.2724C93.4542 77.9164 93.8042 77.6424 94.2482 77.4504C94.6922 77.2584 95.1982 77.1644 95.7662 77.1684C96.3422 77.1684 96.8562 77.2704 97.3082 77.4744C97.7642 77.6784 98.1402 77.9704 98.4362 78.3504C98.7322 78.7264 98.9282 79.1724 99.0242 79.6884L98.1002 79.8564C98.0402 79.4804 97.9022 79.1544 97.6862 78.8784C97.4702 78.6024 97.1942 78.3904 96.8582 78.2424C96.5262 78.0904 96.1602 78.0124 95.7602 78.0084C95.3722 78.0084 95.0262 78.0744 94.7222 78.2064C94.4222 78.3344 94.1842 78.5104 94.0082 78.7344C93.8322 78.9584 93.7442 79.2144 93.7442 79.5024C93.7442 79.7944 93.8242 80.0284 93.9842 80.2044C94.1482 80.3804 94.3482 80.5184 94.5842 80.6184C94.8242 80.7184 95.0562 80.8004 95.2802 80.8644L96.9722 81.3624C97.1482 81.4104 97.3542 81.4804 97.5902 81.5724C97.8302 81.6604 98.0622 81.7884 98.2862 81.9564C98.5142 82.1204 98.7022 82.3364 98.8502 82.6044C98.9982 82.8724 99.0722 83.2124 99.0722 83.6244C99.0722 84.0244 98.9922 84.3824 98.8322 84.6984C98.6762 85.0144 98.4542 85.2804 98.1662 85.4964C97.8822 85.7124 97.5482 85.8764 97.1642 85.9884C96.7842 86.1044 96.3682 86.1624 95.9162 86.1624ZM100.305 85.9824L100.311 77.3424H101.199V82.6224L104.091 79.5024H105.267L102.231 82.7424L105.663 85.9824H104.379L101.199 82.8624V85.9824H100.305ZM106.384 78.2724V77.2824H107.266V78.2724H106.384ZM106.384 85.9824V79.5024H107.266V85.9824H106.384ZM109.185 85.9824V77.1624H110.067V85.9824H109.185ZM111.985 85.9824V77.1624H112.867V85.9824H111.985ZM117.084 86.1564C116.324 86.1564 115.698 85.9924 115.206 85.6644C114.718 85.3364 114.418 84.8804 114.306 84.2964L115.206 84.1464C115.302 84.5144 115.52 84.8084 115.86 85.0284C116.204 85.2444 116.628 85.3524 117.132 85.3524C117.624 85.3524 118.012 85.2504 118.296 85.0464C118.58 84.8384 118.722 84.5564 118.722 84.2004C118.722 84.0004 118.676 83.8384 118.584 83.7144C118.496 83.5864 118.314 83.4684 118.038 83.3604C117.762 83.2524 117.35 83.1244 116.802 82.9764C116.214 82.8164 115.754 82.6564 115.422 82.4964C115.09 82.3364 114.854 82.1524 114.714 81.9444C114.574 81.7324 114.504 81.4744 114.504 81.1704C114.504 80.8024 114.608 80.4804 114.816 80.2044C115.024 79.9244 115.312 79.7084 115.68 79.5564C116.048 79.4004 116.476 79.3224 116.964 79.3224C117.452 79.3224 117.888 79.4024 118.272 79.5624C118.66 79.7184 118.972 79.9384 119.208 80.2224C119.444 80.5064 119.584 80.8364 119.628 81.2124L118.728 81.3744C118.668 80.9944 118.478 80.6944 118.158 80.4744C117.842 80.2504 117.44 80.1344 116.952 80.1264C116.492 80.1144 116.118 80.2024 115.83 80.3904C115.542 80.5744 115.398 80.8204 115.398 81.1284C115.398 81.3004 115.45 81.4484 115.554 81.5724C115.658 81.6924 115.846 81.8064 116.118 81.9144C116.394 82.0224 116.786 82.1404 117.294 82.2684C117.89 82.4204 118.358 82.5804 118.698 82.7484C119.038 82.9164 119.28 83.1144 119.424 83.3424C119.568 83.5704 119.64 83.8524 119.64 84.1884C119.64 84.8004 119.412 85.2824 118.956 85.6344C118.504 85.9824 117.88 86.1564 117.084 86.1564ZM121.139 85.9824V84.9564H122.165V85.9824H121.139ZM129.882 86.1624C129.274 86.1624 128.726 86.0564 128.238 85.8444C127.75 85.6324 127.334 85.3304 126.99 84.9384C126.65 84.5464 126.39 84.0744 126.21 83.5224C126.03 82.9664 125.94 82.3464 125.94 81.6624C125.94 80.7584 126.096 79.9704 126.408 79.2984C126.724 78.6224 127.176 78.0984 127.764 77.7264C128.352 77.3544 129.058 77.1684 129.882 77.1684C130.802 77.1684 131.55 77.3844 132.126 77.8164C132.706 78.2444 133.11 78.8204 133.338 79.5444L132.45 79.7604C132.262 79.2324 131.952 78.8104 131.52 78.4944C131.092 78.1784 130.558 78.0204 129.918 78.0204C129.242 78.0164 128.68 78.1684 128.232 78.4764C127.784 78.7804 127.446 79.2084 127.218 79.7604C126.994 80.3084 126.88 80.9424 126.876 81.6624C126.872 82.3824 126.982 83.0164 127.206 83.5644C127.434 84.1084 127.774 84.5364 128.226 84.8484C128.678 85.1564 129.242 85.3124 129.918 85.3164C130.538 85.3164 131.05 85.1964 131.454 84.9564C131.858 84.7164 132.164 84.3724 132.372 83.9244C132.584 83.4764 132.704 82.9464 132.732 82.3344H130.74V81.5784H133.656C133.668 81.6704 133.674 81.7684 133.674 81.8724C133.678 81.9724 133.68 82.0444 133.68 82.0884C133.68 82.8684 133.54 83.5664 133.26 84.1824C132.98 84.7944 132.558 85.2784 131.994 85.6344C131.434 85.9864 130.73 86.1624 129.882 86.1624ZM134.881 85.9824V79.5024H135.673V81.0624L135.517 80.8584C135.589 80.6664 135.683 80.4904 135.799 80.3304C135.915 80.1664 136.041 80.0324 136.177 79.9284C136.345 79.7804 136.541 79.6684 136.765 79.5924C136.989 79.5124 137.215 79.4664 137.443 79.4544C137.671 79.4384 137.879 79.4544 138.067 79.5024V80.3304C137.831 80.2704 137.573 80.2564 137.293 80.2884C137.013 80.3204 136.755 80.4324 136.519 80.6244C136.303 80.7924 136.141 80.9944 136.033 81.2304C135.925 81.4624 135.853 81.7104 135.817 81.9744C135.781 82.2344 135.763 82.4924 135.763 82.7484V85.9824H134.881ZM141.794 86.1624C141.15 86.1624 140.6 86.0164 140.144 85.7244C139.688 85.4324 139.338 85.0284 139.094 84.5124C138.85 83.9964 138.728 83.4044 138.728 82.7364C138.728 82.0564 138.852 81.4604 139.1 80.9484C139.348 80.4364 139.7 80.0384 140.156 79.7544C140.616 79.4664 141.162 79.3224 141.794 79.3224C142.442 79.3224 142.994 79.4684 143.45 79.7604C143.91 80.0484 144.26 80.4504 144.5 80.9664C144.744 81.4784 144.866 82.0684 144.866 82.7364C144.866 83.4164 144.744 84.0144 144.5 84.5304C144.256 85.0424 143.904 85.4424 143.444 85.7304C142.984 86.0184 142.434 86.1624 141.794 86.1624ZM141.794 85.3164C142.514 85.3164 143.05 85.0784 143.402 84.6024C143.754 84.1224 143.93 83.5004 143.93 82.7364C143.93 81.9524 143.752 81.3284 143.396 80.8644C143.044 80.4004 142.51 80.1684 141.794 80.1684C141.31 80.1684 140.91 80.2784 140.594 80.4984C140.282 80.7144 140.048 81.0164 139.892 81.4044C139.74 81.7884 139.664 82.2324 139.664 82.7364C139.664 83.5164 139.844 84.1424 140.204 84.6144C140.564 85.0824 141.094 85.3164 141.794 85.3164ZM147.335 85.9824L145.355 79.4964L146.237 79.5024L147.773 84.5364L149.315 79.5024H150.119L151.661 84.5364L153.209 79.5024H154.085L152.105 85.9824H151.337L149.717 80.8224L148.103 85.9824H147.335ZM157.569 85.9824V77.3424H160.191C160.283 77.3424 160.439 77.3444 160.659 77.3484C160.883 77.3524 161.097 77.3684 161.301 77.3964C161.957 77.4884 162.505 77.7324 162.945 78.1284C163.385 78.5244 163.715 79.0284 163.935 79.6404C164.155 80.2524 164.265 80.9264 164.265 81.6624C164.265 82.3984 164.155 83.0724 163.935 83.6844C163.715 84.2964 163.385 84.8004 162.945 85.1964C162.505 85.5924 161.957 85.8364 161.301 85.9284C161.101 85.9524 160.887 85.9684 160.659 85.9764C160.431 85.9804 160.275 85.9824 160.191 85.9824H157.569ZM158.481 85.1364H160.191C160.355 85.1364 160.531 85.1324 160.719 85.1244C160.911 85.1124 161.075 85.0924 161.211 85.0644C161.715 84.9764 162.121 84.7724 162.429 84.4524C162.741 84.1324 162.969 83.7324 163.113 83.2524C163.257 82.7684 163.329 82.2384 163.329 81.6624C163.329 81.0824 163.257 80.5504 163.113 80.0664C162.969 79.5824 162.741 79.1824 162.429 78.8664C162.117 78.5504 161.711 78.3484 161.211 78.2604C161.075 78.2324 160.909 78.2144 160.713 78.2064C160.521 78.1944 160.347 78.1884 160.191 78.1884H158.481V85.1364ZM167.485 86.1624C166.997 86.1624 166.587 86.0744 166.255 85.8984C165.927 85.7224 165.681 85.4884 165.517 85.1964C165.353 84.9044 165.271 84.5864 165.271 84.2424C165.271 83.8904 165.341 83.5904 165.481 83.3424C165.625 83.0904 165.819 82.8844 166.063 82.7244C166.311 82.5644 166.597 82.4424 166.921 82.3584C167.249 82.2784 167.611 82.2084 168.007 82.1484C168.407 82.0844 168.797 82.0304 169.177 81.9864C169.561 81.9384 169.897 81.8924 170.185 81.8484L169.873 82.0404C169.885 81.4004 169.761 80.9264 169.501 80.6184C169.241 80.3104 168.789 80.1564 168.145 80.1564C167.701 80.1564 167.325 80.2564 167.017 80.4564C166.713 80.6564 166.499 80.9724 166.375 81.4044L165.517 81.1524C165.665 80.5724 165.963 80.1224 166.411 79.8024C166.859 79.4824 167.441 79.3224 168.157 79.3224C168.749 79.3224 169.251 79.4344 169.663 79.6584C170.079 79.8784 170.373 80.1984 170.545 80.6184C170.625 80.8064 170.677 81.0164 170.701 81.2484C170.725 81.4804 170.737 81.7164 170.737 81.9564V85.9824H169.951V84.3564L170.179 84.4524C169.959 85.0084 169.617 85.4324 169.153 85.7244C168.689 86.0164 168.133 86.1624 167.485 86.1624ZM167.587 85.4004C167.999 85.4004 168.359 85.3264 168.667 85.1784C168.975 85.0304 169.223 84.8284 169.411 84.5724C169.599 84.3124 169.721 84.0204 169.777 83.6964C169.825 83.4884 169.851 83.2604 169.855 83.0124C169.859 82.7604 169.861 82.5724 169.861 82.4484L170.197 82.6224C169.897 82.6624 169.571 82.7024 169.219 82.7424C168.871 82.7824 168.527 82.8284 168.187 82.8804C167.851 82.9324 167.547 82.9944 167.275 83.0664C167.091 83.1184 166.913 83.1924 166.741 83.2884C166.569 83.3804 166.427 83.5044 166.315 83.6604C166.207 83.8164 166.153 84.0104 166.153 84.2424C166.153 84.4304 166.199 84.6124 166.291 84.7884C166.387 84.9644 166.539 85.1104 166.747 85.2264C166.959 85.3424 167.239 85.4004 167.587 85.4004ZM172.419 78.2724V77.2824H173.301V78.2724H172.419ZM172.419 85.9824V79.5024H173.301V85.9824H172.419ZM175.22 85.9824V77.1624H176.102V85.9824H175.22ZM178.825 88.8624L180.079 85.4604L180.097 86.4684L177.259 79.5024H178.195L180.523 85.3284H180.139L182.287 79.5024H183.187L179.707 88.8624H178.825ZM183.436 85.9824V84.9564H184.462V85.9824H183.436Z" fill="#1A1A1A"/>
</svg>
