<svg width="14" height="13" viewBox="0 0 14 13" fill="none" xmlns="http://www.w3.org/2000/svg">
<path d="M6.10926 0.849068C6.28002 0.357856 6.36537 0.112257 6.49165 0.0441868C6.6009 -0.0147289 6.73242 -0.0147289 6.84174 0.0441868C6.96795 0.112257 7.0533 0.357856 7.22406 0.849068L8.35288 4.09647C8.40149 4.23628 8.42576 4.30618 8.46958 4.35823C8.50823 4.40422 8.55758 4.44006 8.61327 4.46263C8.67626 4.48819 8.75025 4.48969 8.89822 4.49271L12.3355 4.56276C12.8555 4.57335 13.1154 4.57865 13.2192 4.67768C13.309 4.76339 13.3496 4.88852 13.3273 5.01063C13.3017 5.15175 13.0945 5.3088 12.6801 5.62304L9.94037 7.70002C9.82242 7.7895 9.76348 7.8342 9.72748 7.89188C9.69569 7.94293 9.67688 8.00091 9.6726 8.06081C9.66781 8.12867 9.6892 8.19948 9.73206 8.34118L10.7277 11.6319C10.8782 12.1297 10.9535 12.3785 10.8914 12.5078C10.8376 12.6197 10.7312 12.697 10.6082 12.7136C10.466 12.7327 10.2526 12.5842 9.82574 12.2871L7.00373 10.3235C6.88224 10.2389 6.82153 10.1967 6.75551 10.1802C6.69716 10.1658 6.63616 10.1658 6.57788 10.1802C6.51187 10.1967 6.45108 10.2389 6.32959 10.3235L3.50762 12.2871C3.08076 12.5842 2.86733 12.7327 2.72519 12.7136C2.60217 12.697 2.49573 12.6197 2.44196 12.5078C2.37983 12.3785 2.45513 12.1297 2.60572 11.6319L3.60129 8.34118C3.64414 8.19948 3.66557 8.12867 3.66075 8.06081C3.65649 8.00091 3.63765 7.94293 3.60586 7.89188C3.56989 7.8342 3.51091 7.7895 3.39297 7.70002L0.653325 5.62304C0.238916 5.3088 0.0317111 5.15175 0.00598937 5.01063C-0.0162801 4.88852 0.0243789 4.76339 0.114172 4.67768C0.217915 4.57865 0.477883 4.57336 0.997812 4.56276L4.4351 4.49271C4.58307 4.48969 4.65706 4.48819 4.7201 4.46263C4.77579 4.44006 4.82512 4.40422 4.8638 4.35823C4.90758 4.30618 4.93188 4.23628 4.98048 4.09647L6.10926 0.849068Z" fill="#EBB300"/>
</svg>
