<svg width="15" height="12" viewBox="0 0 15 12" fill="none" xmlns="http://www.w3.org/2000/svg">
<path d="M11.4091 7.77273C12.7479 7.77273 13.8333 8.85812 13.8333 10.197V11.4091H12.6212M9.59091 5.27212C10.6365 5.00297 11.4091 4.05384 11.4091 2.92424C11.4091 1.79464 10.6365 0.845485 9.59091 0.57637M7.77273 2.92424C7.77273 4.26312 6.68733 5.34848 5.34848 5.34848C4.00961 5.34848 2.92424 4.26312 2.92424 2.92424C2.92424 1.58537 4.00961 0.5 5.34848 0.5C6.68733 0.5 7.77273 1.58537 7.77273 2.92424ZM2.92424 7.77273H7.77273C9.11158 7.77273 10.197 8.85812 10.197 10.197V11.4091H0.5V10.197C0.5 8.85812 1.58537 7.77273 2.92424 7.77273Z" stroke="#4D4D4D" stroke-linecap="round" stroke-linejoin="round"/>
</svg>
