<svg width="49" height="36" viewBox="0 0 49 36" fill="none" xmlns="http://www.w3.org/2000/svg">
<path d="M0 0H49V35.9333H0V0Z" fill="#FDFDFD"/>
<path d="M0.0425415 0.182129H48.9518V4.62842H0.0425415V0.182129Z" fill="#315881"/>
<path d="M48.9518 31.3057H0.0425415V35.752H48.9518V31.3057Z" fill="#DFA43B"/>
<path d="M18.8115 11.5376L15.3211 11.5332L11.8219 20.2702L10.4435 12.9582C10.2612 12.0023 9.69879 11.5354 8.73394 11.5354H3.15607V11.8911C4.52108 12.3113 5.49482 12.6225 6.07951 12.8226C6.73756 13.0472 7.0777 13.5229 7.24888 14.2054C7.80912 16.4264 8.68726 19.8411 9.88109 24.443L13.4159 24.4452L18.8115 11.5376Z" fill="#315881"/>
<path d="M20.8479 24.443L23.6046 11.5376L20.281 11.5332L17.5243 24.4386L20.8479 24.443Z" fill="#315881"/>
<path d="M33.3131 11.8909C32.5928 11.6042 31.3389 11.2974 30.3474 11.2974C26.9615 11.2974 24.5717 12.9847 24.5428 15.4969C24.5206 17.4514 26.2973 18.4275 27.5786 19.1313L27.5996 19.1429C28.8823 19.8498 29.2314 20.1322 29.2269 20.7035C29.218 21.5061 28.2376 21.9663 27.0927 21.9663C25.8477 21.9663 25.2275 21.7728 23.7691 21.1637L23.1644 23.956C24.5961 24.4628 25.2297 24.6096 26.9882 24.6363C30.8409 24.6363 32.6661 22.5065 32.6884 20.3478C32.7084 19.3074 32.4927 18.3514 30.8409 17.2843C29.3914 16.3484 27.9864 15.9171 27.9864 15.0634C27.9864 14.5365 28.7956 13.9874 30.1073 13.9674C31.0077 13.9518 32.0792 14.3053 32.7306 14.5676L33.3131 11.8909Z" fill="#315881"/>
<path fill-rule="evenodd" clip-rule="evenodd" d="M41.446 24.4455L41.0592 22.5114H36.7263L36.0371 24.4299L32.5646 24.4366L33.0303 23.3216C35.0304 18.5332 36.5316 14.9394 37.5355 12.5472C37.8179 11.8736 38.3203 11.5312 39.0584 11.5357C39.6231 11.5401 40.5457 11.5401 41.8262 11.5357L44.5095 24.4411L41.446 24.4477V24.4455ZM37.7063 19.8347L39.4404 15.0327L40.5075 19.8347H37.7063Z" fill="#315881"/>
</svg>
