<svg width="29" height="29" viewBox="0 0 29 29" fill="none" xmlns="http://www.w3.org/2000/svg">
<path d="M25.5 7.08333H19.8333V0L0 7.08333V25.5C0 27.0583 1.275 28.3333 2.83333 28.3333H25.5C27.0583 28.3333 28.3333 27.0583 28.3333 25.5V9.91667C28.3333 8.35833 27.0583 7.08333 25.5 7.08333ZM22.6667 17.7083C22.6667 18.491 22.0327 19.125 21.25 19.125C20.4673 19.125 19.8333 18.491 19.8333 17.7083C19.8333 16.9256 20.4673 16.2917 21.25 16.2917C22.0327 16.2917 22.6667 16.9256 22.6667 17.7083ZM17 4.0205V7.08333H8.42421L17 4.0205Z" fill="#4F46E5"/>
</svg>
